<?xml version="1.0" encoding="UTF-8"?>
<svg id="Capa_2" data-name="Capa 2" xmlns="http://www.w3.org/2000/svg" viewBox="0 0 29.88 41.76">
  <defs>
    <style>
      .cls-1 {
        fill: #fff;
      }
    </style>
  </defs>
  <g id="Capa_1-2" data-name="Capa 1">
    <g>
      <path class="cls-1" d="M15.76.03c3.83.35,7.01,3.74,7.27,7.54.28,4.21-.22,8.73,0,12.97-1.04,9.97-15.13,9.97-16.16,0,.22-4.24-.28-8.76,0-12.97C7.11,3.77,10.3.38,14.12.03c.43-.04,1.2-.04,1.63,0ZM14.19,2.58c-2.48.28-4.6,2.51-4.8,4.99-.33,4.17.25,8.76,0,12.97.83,6.65,10.28,6.65,11.1,0-.25-4.21.33-8.8,0-12.97-.25-3.17-3.2-5.34-6.3-4.99Z"/>
      <path class="cls-1" d="M16.16,34.85v4.4h5.75c.06,0,.38.14.46.19.99.56.79,1.98-.27,2.28l-14.21.04c-1.18-.22-1.44-1.8-.35-2.35.07-.04.37-.16.41-.16h5.75v-4.4c-5.41-.44-10.22-3.9-12.42-8.83C.52,24.26.05,22.14,0,20.21s2.32-1.87,2.53-.4.14,2.6.66,4.15c3.81,11.33,20.13,11.1,23.61-.31.43-1.42.36-2.47.56-3.85.21-1.47,2.57-1.45,2.53.4-.06,2.41-.71,4.84-1.87,6.94-2.38,4.34-6.9,7.29-11.85,7.69Z"/>
    </g>
  </g>
</svg>