<?xml version="1.0" encoding="UTF-8"?>
<svg id="Capa_2" data-name="Capa 2" xmlns="http://www.w3.org/2000/svg" viewBox="0 0 14.28 16.69">
  <defs>
    <style>
      .cls-1 {
        fill: #fff;
      }
    </style>
  </defs>
  <g id="Capa_1-2" data-name="Capa 1">
    <g>
      <path class="cls-1" d="M5.74.01c.09.01.33.08.42.12.52.18.98.58,1.21,1.09.75-.01,1.57-.11,1.43.92.74.06,1.77-.27,2.09.63l.03,7.25c2.39.02,4.03,2.43,3.08,4.66-.84,1.98-3.3,2.61-5.05,1.4H.74c-.44-.1-.73-.48-.74-.93V3.06c.09-1.19,1.28-.9,2.12-.93-.09-1.03.68-.92,1.43-.93.26-.46.64-.85,1.14-1.04.13-.05.39-.13.52-.15.13-.01.4-.01.52,0ZM8.22,1.84h-1.09c-.17,0-.3-.4-.38-.53-.56-.87-1.86-.91-2.49-.08-.11.15-.27.62-.46.62h-1.06v1.21h5.48v-1.21ZM.87,15.49h7.48c-.46-.62-.76-1.34-.75-2.12h-2.43c-.4-.06-.41-.56-.03-.62h2.52c.23-1.35,1.33-2.44,2.67-2.68V3.06c.01-.09-.13-.31-.21-.31h-1.32c.06.49-.1.87-.63.91H2.72c-.5-.05-.64-.47-.6-.91-.38.04-.88-.06-1.25,0-.14.02-.26.16-.25.31v12.13c-.03.13.13.29.25.31ZM10.63,10.64c-1.91.19-2.98,2.32-2.1,4,.04.08.32.54.39.52,1.06-1.19,2.99-1.18,4.05,0,1.67-1.88.18-4.77-2.34-4.52ZM10.76,14.88c-.53.05-1.04.3-1.4.69.9.69,2.26.68,3.16,0-.46-.48-1.1-.75-1.77-.69Z"/>
      <path class="cls-1" d="M5.05,6.41h4.43c.33.03.33.54-.03.58l-4.41-.03c-.24-.14-.22-.42.01-.56Z"/>
      <path class="cls-1" d="M9.64,9.5c.17.18.05.49-.2.51l-4.41-.03c-.22-.12-.22-.41,0-.54l4.5-.02s.09.04.11.07Z"/>
      <path class="cls-1" d="M3.74,8.23c.27-.05.48.27.3.49l-1.58,1.55c-.16.1-.31.1-.48,0-.09-.05-.48-.5-.54-.6-.22-.35.18-.66.47-.4.06.05.29.39.33.39l1.32-1.32c.05-.04.13-.1.19-.11Z"/>
      <path class="cls-1" d="M3.74,5.2c.27-.05.48.27.3.49l-1.58,1.55c-.16.1-.31.1-.48,0-.08-.05-.48-.51-.54-.6-.22-.35.18-.66.47-.4.06.05.29.39.33.39l1.32-1.32c.05-.04.13-.1.19-.11Z"/>
      <path class="cls-1" d="M4.33,11.66c.08.09.11.28.03.38-.51.44-.98,1.08-1.5,1.5-.19.15-.35.22-.57.08-.06-.04-.54-.59-.56-.64-.1-.24.02-.46.29-.45s.44.48.55.46l1.45-1.39c.1-.02.25-.01.33.07Z"/>
      <path class="cls-1" d="M11.8,11.89c1.13,1.13-.56,2.84-1.7,1.75s.57-2.89,1.7-1.75ZM10.89,12.14c-.75.06-.72,1.22.06,1.22.82,0,.77-1.29-.06-1.22Z"/>
      <path class="cls-1" d="M5.7,1.16c.37.4-.5.8-.51.23,0-.31.34-.42.51-.23Z"/>
    </g>
  </g>
</svg>