<?xml version="1.0" encoding="UTF-8"?>
<svg id="Capa_2" data-name="Capa 2" xmlns="http://www.w3.org/2000/svg" viewBox="0 0 336.29 336.25">
  <defs>
    <style>
      .cls-1 {
        fill: #fff;
      }
    </style>
  </defs>
  <g id="Capa_1-2" data-name="Capa 1">
    <g>
      <path class="cls-1" d="M244.22,288.88c-2.54-2.11-5.25-4.92-8.91-3.85-5.08,2.73-10.19,5.5-15.54,7.69-4.4,1.81-13.46,3.79-16.74,5.71-4.8,2.82-2.92,12.07-3.52,16.69-1.37,10.54-11.83,19.44-22.11,20.55-22.16,2.4-38.73-2-41.46-26.51-.39-3.46,1.63-5.69-1.13-9.31-1.61-2.11-14.59-5.61-18.31-7.14s-14.9-8.02-17.59-7.91c-4.91.21-8.85,6.83-12.41,9.37-8.94,6.36-21.75,5.53-30.25-1.09-12.97-10.1-25.74-26.35-14.49-42.9,2.34-3.45,9.5-8.85,9.66-12.87.11-2.72-6.35-13.82-7.9-17.58-1.44-3.5-5.03-16.42-6.72-17.98-3.63-3.33-6.33-1.11-9.71-1.44C2.95,197.96-1.68,181.04.47,159.5c1.47-14.71,12.75-22.26,26.61-23.61,3.38-.33,5.46,1.81,9.3-1.11,2.38-1.81,4.08-10.57,5.45-14.01,1.61-4.04,3.37-8.09,5.16-12.06,2.83-6.3,7.12-7.72,2.01-14.95-1.92-2.72-5.1-4.71-6.93-7.29-5.75-8.09-5.72-20.96,0-29.1,1.88-2.67,12.67-13.44,15.34-15.35,7.93-5.64,20.56-5.79,28.65-.3,3.63,2.46,8.28,9.48,12.87,9.66,2.7.11,13.38-6.13,17.07-7.67,3.56-1.49,17.02-5.35,18.5-6.95,3.33-3.63,1.11-6.33,1.44-9.71C138.28,2.79,155.17-1.59,176.73.44c14.71,1.38,22.27,12.8,23.62,26.6.33,3.38-1.81,5.46,1.11,9.3,1.6,2.11,14.6,5.62,18.31,7.14s14.95,8.01,17.58,7.9c3.82-.15,5.6-3.95,8.27-6.02,8.47-6.56,17.04-9.97,27.81-6.15,6.36,2.26,21.32,17.22,23.58,23.58,2.63,7.41,1.89,16.59-2.51,23.22-2.31,3.48-9.51,8.99-9.66,12.87-.11,2.72,6.35,13.82,7.9,17.58,1.41,3.43,5.08,16.51,6.72,17.98,3.71,3.31,11.19,1.7,15.68,2.28,10.46,1.35,19.45,11.91,20.55,22.11,2.45,22.58-2.3,39.06-27.23,41.51-2.99.29-6.06-1.93-9.38,1.78-1.28,1.43-5.86,16.12-7.33,19.62-1.55,3.68-7.05,12.53-6.92,15.57.21,4.93,7.08,9.05,9.66,12.86,4.43,6.53,5.1,15.91,2.51,23.22-2.77,7.79-19.25,23.52-27.66,24.74-13.02,1.9-16.33-1.96-25.14-9.27ZM157.51,82.24c-68.02,6.02-99.75,90.38-55.97,141.6,60.06,70.27,173.32,12.23,150.22-78.36-11.14-43.71-50.19-67.14-94.25-63.24Z"/>
      <path class="cls-1" d="M140.25,98.67c-49.3,18.3-62.17,85.61-25.75,122.31,31.43,31.66,86.13,28.43,113.08-7.29,45.57-60.42-15.04-141.85-87.33-115.02ZM193.23,205.8c-.97,2.83-3.65,4.6-6.49,4.58-.03,0-.06,0-.08,0-.03,0-.05,0-.08,0-2.84.02-5.52-1.75-6.49-4.58l-13.85-35.79-16.08,35.79c-.98,2.86-3.71,4.65-6.58,4.58,0,0-.02,0-.02,0,0,0-.02,0-.02,0-2.88.06-5.6-1.73-6.58-4.58l-15.15-51.57c-1.21-3.53.69-7.41,4.22-8.62l.29-.1c3.53-1.21,7.41.69,8.62,4.22l9.98,33.98,15.25-33.96c.05-.13.1-.26.16-.39,1.06-2.58,3.58-4.2,6.26-4.21.05,0,.09,0,.14,0,.05,0,.09,0,.14,0,2.68.01,5.2,1.63,6.26,4.21.06.14.12.27.17.42l13.4,34.62,16.76-42.97c1.91,3.37,5.52,5.66,9.66,5.66,1.12,0,2.19-.17,3.21-.48l-23.09,59.19ZM213.11,143.08c-3.92,0-7.09-3.18-7.09-7.09s3.18-7.09,7.09-7.09,7.09,3.18,7.09,7.09-3.18,7.09-7.09,7.09Z"/>
    </g>
  </g>
</svg>