<?xml version="1.0" encoding="UTF-8"?>
<svg id="Capa_2" data-name="Capa 2" xmlns="http://www.w3.org/2000/svg" viewBox="0 0 399.95 397.82">
  <defs>
    <style>
      .cls-1 {
        fill: #fff;
      }
    </style>
  </defs>
  <g id="Capa_1-2" data-name="Capa 1">
    <g>
      <path class="cls-1" d="M399.72,50.98c-3.59-31.84-54.13-68.49-83.46-41.72l-182.28,181.6-2.59,4.43-23.69,87.28c.03,5.74,5.61,10.59,11.29,9.69,29.95-8.88,61.01-15.23,90.19-26.17l181.5-182.38c4.37-5.96,8.22-14.43,9.04-21.81.3-2.68.3-8.26,0-10.94ZM131.96,268.12l14.06-51.55,37.46,37.48-51.52,14.06ZM201.93,243.85l-45.69-47.04L300.34,52.63l47.02,46.28-145.43,144.94ZM362.53,84.51l-47.07-46.53c6.95-8.61,15.77-17.8,27.66-17.8,11.98,0,22.88,10.69,30.03,19.49,13.92,17.14,3.73,32.81-10.62,44.83Z"/>
      <path class="cls-1" d="M361.73,252.76c-1.2,1.21-2.5,3.79-2.63,5.57-1.62,29.25,2.22,60.91.05,89.88-1.32,17.6-12.43,28.75-30.05,30.07-95.4-.73-191.05,1.31-286.31-1.03-11.74-2.91-20.35-12.48-22.47-24.38l-.03-267.95c2.19-14.83,13.61-24.98,28.5-26.16,29.34-2.32,61.66,1.83,91.32-.01,10.73-3.16,10.73-16.38.08-19.52l-97.52.13C19.36,42.92,1.82,62.23,0,85.71l.04,266.37c2.28,23.96,21.31,44.04,45.62,45.74h288.9c23.16-2.76,41.35-20.95,44.07-44.18l-.03-96.02c-1.59-7.49-11.53-10.19-16.87-4.85Z"/>
    </g>
  </g>
</svg>