<?xml version="1.0" encoding="UTF-8"?>
<svg id="Capa_2" data-name="Capa 2" xmlns="http://www.w3.org/2000/svg" viewBox="0 0 358.73 381.29">
  <defs>
    <style>
      .cls-1 {
        fill: #fff;
      }
    </style>
  </defs>
  <g id="Capa_1-2" data-name="Capa 1">
    <path class="cls-1" d="M188.97,0c59.29,4.65,110.85,45.54,127.53,102.94,5.05,17.37,6.35,35.3,5.84,53.37,19.35,5.11,34.22,22.73,35.7,42.86,1.13,15.32,1.67,46.67-4.85,59.99-13.25,27.12-40.77,28.94-67.81,26.81-11.99-.94-21.66-9.83-22.71-21.97-2.44-28.21,1.81-59.97.11-88.56.62-8.82,11.55-20.56,20.4-20.56h15.27c1.81-30.72-6.33-61.01-25.35-85.23-39.41-50.19-111.11-60.81-163.28-23.35-34.53,24.8-52.65,66.12-49.66,108.58h15.27c8.8,0,20,11.8,20.27,20.69-1.1,28.34,2.18,58.84.24,86.95-.69,10.07-9.52,23.42-20.51,23.42h-15.27v27.18c0,7.36,9.13,16.83,15.85,19.14,5.56,1.92,25.96,2.12,32.22,1.37,3.53-.42,2.58-2.63,3.92-5.02,19.16-33.99,70.25-18.89,67.14,20.23-2.55,32.02-44.01,44.07-63.59,18.94-2.58-3.31-3.76-6.96-6.14-10.24-21.32-.38-39.93,3-57.2-12.06-18.84-16.43-16.19-38.18-16.11-60.97-16.56-4.3-31.09-18.88-34.58-35.79-2.56-12.39-2.36-51.28,1.87-62.96,5.22-14.4,17.56-26.24,32.7-29.47-2.97-48.98,16.62-95.93,55.26-126.07C113.18,13.33,142.16,1.8,169.61,0h19.36Z"/>
  </g>
</svg>