<?xml version="1.0" encoding="UTF-8"?>
<svg id="Capa_2" data-name="Capa 2" xmlns="http://www.w3.org/2000/svg" viewBox="0 0 406.79 408.8">
  <defs>
    <style>
      .cls-1 {
        fill: #fff;
      }
    </style>
  </defs>
  <g id="Capa_1-2" data-name="Capa 1">
    <g>
      <path class="cls-1" d="M406.79,237.79v-77.4h-40.72c-3.1-16.32-10.25-31.55-18.38-45.89l27.58-29.11-54.32-54.25-28.06,27.79c-7.95-3.55-15.36-8.15-23.45-11.43-7.58-3.07-15.56-4.94-23.14-7.99V0h-77.45v39.9c-16.43,4.01-31.87,10.86-46.59,19.03l-27.67-27.46-2.01.4-53.01,53.22,27.77,28.73c-8.12,14.71-15.29,30.07-19.04,46.56H8.37v77.4h39.92c3.91,16.47,10.93,31.8,19.03,46.57l-14.74,14.77c-3.71,1.25-7.59,1.11-11.48,2.09-35.74,8.97-51.4,49.11-33.92,81.01l35.5-34.72,14.21,3.77,3.81,14.95-34.74,34.73c-.01,1.63,19.8,7.31,22.34,7.58,3.17.34,9.6.34,12.78,0,27.68-2.97,48.52-29.48,48.32-56.64l12.88-12.65c7.89,3.68,15.34,8.17,23.45,11.43,7.59,3.06,15.56,4.96,23.14,7.99v39.5h77.45v-39.5c3.35-2.29,8.03-2.69,11.95-4.02,11.84-4.02,23.15-9.3,33.98-15.54l28.73,27.93,54.32-54.25-27.56-29.11c7.86-14.49,15.39-29.5,18.35-45.9h40.72ZM102.16,327.94l-11.15-13.53-8.37,8.36c24.45,21.92,15.77,62.78-15.81,71.98-2.35.68-18.58,3.65-18.52.63l25.9-25.9c-1.56-4.55-5.36-25.87-8.03-27.89l-26.89-7.14-26.53,26.21c-5.37-24.52,15.93-49,40.73-49.31,3.7-.05,14.26,2.8,16.35,1.83l84.17-83.35,7.36,8.71c.99.21,8.71-7.11,8.21-8.98-.16-.6-5.21-6.03-6.32-8.12-12.52-23.65,3.08-54.45,28.75-59.87,2.21-.47,16.02-2.74,15.96,0l-26.22,26.5,7.58,27.44,27.66,6.99,26.93-26.21c-.37,4.18.51,9.1,0,13.17-2.53,20.08-22.75,36.15-42.58,36-3.82-.03-12.95-2.74-15.34-1.35l-83.82,83.82ZM248.3,173.97l-34.75,34.69c-2.3,1.06-14.02-1.98-15.22-4.71-.9-2.03-3.49-11.57-2.74-13.21l34.75-35.13c-20.43-9.75-42.73-10.19-61.41,3.65-16.34,12.1-22.73,30.22-21.61,50.19.16,2.92,3.2,8.53-.42,9.98-1.53.61-2.15-4.47-2.4-5.57-11.61-51.38,38.43-94.16,87.43-74.6,47.78,19.07,54.02,84.8,11.44,113.54-15.53,10.48-38.82,14.36-56.12,6.93l3.73-3.47c47.08,8.71,80.92-40.98,57.33-82.3ZM332.52,285.28l25.59,27.12-37.16,37.89-27.13-26.33c-18.13,11.45-37.97,21.02-59.5,23.95v38.3h-53.5v-37.1c-5.95-2.49-13.01-3.41-19.34-5.41-13.62-4.32-27.35-11-38.94-19.33l54.31-54.29c1.32-.59,12.08,3.5,15.1,4.06,80.34,14.78,125.71-86.98,62.24-135.61-56.82-43.54-135.85,6.77-121.71,76.95,1,4.95,3.4,9.34,4.05,14.31l-54.34,54.28c-1.62.34-.97-.41-1.35-1.02-11.05-17.89-19.09-36.39-22.99-57.22H20.34v-53.46h37.53c4.02-21.62,12.82-41.76,24.67-60.13l-26.25-26.45,37.51-37.53,26.86,25.88c18.43-11.84,38.58-20.39,60.17-24.66V11.97h53.5v37.1c5.16,2.17,11.23,3.08,16.76,4.79,15.51,4.78,29.16,11.65,42.86,20.23l27.01-26.21,36.38,36.27.4,2.01-25.24,25.98c-.13,1.53,7.8,13.54,9.24,16.3,7.02,13.47,12.54,28.82,14.75,43.9h38.33v53.46h-38.33c-3.15,21.39-12.49,41.32-23.96,59.46Z"/>
      <path class="cls-1" d="M314.96,181.14c12.86,70.29-47.28,134.34-118.13,127.71l-.84,11.93c78.34,7.08,144.66-63.4,130.93-141.22l-11.96,1.58Z"/>
      <path class="cls-1" d="M166.49,85.41l3.17,11.94c34.6-12.78,73.86-6.72,103.4,14.97l7.56-8.98c-32.23-25.06-75.59-30.72-114.13-17.92Z"/>
      <path class="cls-1" d="M160.26,310.83c.19,1.31,13.57,6.26,14.92,5.1l2.38-11.03-13.46-4.04-3.85,9.98Z"/>
      <path class="cls-1" d="M300.59,123.67c.93-1.3-7.72-9.81-9.18-11.14l-8.37,8.36,8.48,9.12,9.07-6.34Z"/>
      <polygon class="cls-1" points="106.63 287.77 114.27 295.98 142.45 268.4 134.23 260.19 106.63 287.77"/>
      <polygon class="cls-1" points="145.67 249.36 153.28 257.72 161.61 249.25 153.39 241.04 145.67 249.36"/>
    </g>
  </g>
</svg>