<?xml version="1.0" encoding="UTF-8"?>
<svg id="Capa_2" data-name="Capa 2" xmlns="http://www.w3.org/2000/svg" viewBox="0 0 32.32 32.28">
  <defs>
    <style>
      .cls-1 {
        fill: #9fc42c;
      }
    </style>
  </defs>
  <g id="Capa_1-2" data-name="Capa 1">
    <g>
      <path class="cls-1" d="M32.29,14.86c-.13-.36-.36-.62-.76-.69h-5.58c.1-1.37-.77-2.8-1.94-3.46-.4-.22-.8-.32-1.22-.49.32-.73.21-1.53.14-2.29,1-.43,1.96-1.55,3.14-.99.7.33.65,1.21,1.72.97.52-.12.74-.83.56-1.29-.32-.83-1.67-1.6-2.52-1.7-1.61-.2-2.55.75-3.88,1.36-.59-.54-1.25-.93-2.04-1.13.07-.54.19-.98.16-1.54-.34-4.81-7.48-4.78-7.82,0-.04.55.1,1.01.16,1.55-2.21.45-3.71,2.94-2.88,5.08-.43.16-.85.27-1.26.51-1.17.68-1.99,2.07-1.9,3.44H.79c-.41.07-.62.35-.79.69v16.73c.18.35.36.5.69.69h30.93c.38-.2.62-.4.7-.85l-.03-16.57ZM24.05,14.16h-3.98c0-2.75,3.99-2.75,3.98,0ZM19.47,10.94c-2.9.35-3.12-3.65-.61-3.95,2.66-.32,3.03,3.66.61,3.95ZM18.18,14.16h-4.04c.07-2.75,3.97-2.75,4.04,0ZM15.89,1.87c2.71-.32,3.03,3.67.61,3.95-2.88.33-3.09-3.66-.61-3.95ZM12.92,6.98c2.95-.38,3.11,4.41-.13,3.94-2.14-.31-2.1-3.65.13-3.94ZM12.25,14.16h-3.98c0-2.75,3.98-2.75,3.98,0ZM30.42,30.38H1.89v-6.25h28.53v6.25ZM30.42,22.24H1.89v-6.19h28.53v6.19Z"/>
      <path class="cls-1" d="M5.07,28.24c1.25-.09,1.12-2.14-.29-1.88-1.11.2-.87,1.96.29,1.88Z"/>
      <path class="cls-1" d="M27.7,28.14c1-.45.57-2.03-.64-1.78-1.21.25-.66,2.36.64,1.78Z"/>
      <path class="cls-1" d="M27.54,20.08c1.12-.21.85-2.03-.35-1.87-1.24.17-1.01,2.12.35,1.87Z"/>
      <path class="cls-1" d="M5.49,18.36c-1.03-.57-1.91.73-1.18,1.47,1.03,1.04,2.37-.81,1.18-1.47Z"/>
    </g>
  </g>
</svg>