<?xml version="1.0" encoding="UTF-8"?>
<svg id="Capa_2" data-name="Capa 2" xmlns="http://www.w3.org/2000/svg" viewBox="0 0 106.29 105.96">
  <defs>
    <style>
      .cls-1 {
        fill: #fff;
      }
    </style>
  </defs>
  <g id="Capa_1-2" data-name="Capa 1">
    <g>
      <path class="cls-1" d="M48.17,89.98h42V15.98h-42c2.03,9.72-12.12,14.04-15.48,5.98-1.72-4.14-2.07-21.28,5-21.96h62.96c2.82.54,6.11,4.43,5.58,7.42l-.58,94.54-3.5,3.5-64.46.5c-7.07-.68-6.72-17.82-5-21.96,3.35-8.06,17.51-3.75,15.48,5.98Z"/>
      <path class="cls-1" d="M32.17,41.98h43.5c4.35,0,9.39,6.09,9.57,10.52.2,4.78-4.75,11.48-9.57,11.48h-43.5c1.86,35.32-20.61.56-31.05-7.44-1.48-2.05-1.5-5.03,0-7.11,5.81-3.78,18.64-21.36,24.03-23.05,8.29-2.59,7.32,10.86,7.02,15.6Z"/>
    </g>
  </g>
</svg>