<?xml version="1.0" encoding="UTF-8"?>
<svg id="Capa_2" data-name="Capa 2" xmlns="http://www.w3.org/2000/svg" viewBox="0 0 32.32 32.33">
  <defs>
    <style>
      .cls-1 {
        fill: #9fc42c;
      }
    </style>
  </defs>
  <g id="Capa_1-2" data-name="Capa 1">
    <g>
      <path class="cls-1" d="M14.09,0c.34.11.69.15,1.03.27,1.11.37,1.99,1.21,2.6,2.17,1.12-.28,2.31-.43,3.44-.14s2.13,1.19,3.17,1.75c1.47.79,3.18,1.21,4.86,1.24.78-1.45,2.68-1.25,3.13.33v.63c-.2.52-.36.79-.84,1.08-.11.06-.32.1-.36.16-.07.09-.21.64-.3.82-1.07,2.33-2.96,4.1-5.45,4.83-.38.11-1.31.22-1.53.42-.31.29-.62,1.19-.66,1.61-.19,2.09,1.43,2.91,2.45,4.36.51.72,1.17,2.06,1.17,2.95,0,1.63-2.08,2.39-3.08,1.04-.35-.47-.23-.85-.92-1.04s-1.46-.25-2.15-.47c.57,1.65.47,3.42-.27,5l-.93,1.5h1.8c.49,0,1.4.49,1.73.85.7.75,1.22,2.46-.06,2.9-5.01-.18-10.81.93-15.26-1.9-.27-.17-.89-.74-1.08-.81-.66-.25-1.47-.29-2.23-.61-6.38-2.74-4.81-11.18-1.3-15.66.64-.82,2.25-2.34,2.33-3.34.07-.85-.42-1.41-1.3-1.3-.81.1-.87.9-1.42,1.29-1.25.87-2.93-.29-2.5-1.74.71-2.39,3.95-3.41,6.1-2.35,2.85,1.4,2.88,4.78,1.22,7.15-2,2.86-3.78,3.8-4.19,7.73-.16,1.59-.12,3.25,1.07,4.45-.25-2.95.52-5.88,2.06-8.38,1.36-2.22,3.19-3.91,4.85-5.87.19-.22.97-1.12,1.04-1.29.04-.11-.04-.08-.09-.1-.71-.28-1.14-.38-1.77-.88-2.92-2.31-2.2-6.93,1.23-8.29l1.26-.35h1.14ZM29.98,7.32c-.45-.11-.61-.59-.88-.92-1.91-.12-3.72-.54-5.4-1.47-1.89-1.04-2.43-2-4.89-1.63-.34.05-1.28.39-1.5.33-.4-.1-.49-.58-.69-.89-1.56-2.35-5.17-2.18-6.47.35-1.04,2.03-.08,4.57,2.08,5.3.39.13,1.11.16,1.35.29.52.29.15.79-.07,1.12-3.11,4.69-7.45,6.72-8.06,13.13-.56,5.9,3.67,7.82,8.79,8.29h8.36c.07-.9-.69-1.56-1.55-1.64-.92-.09-2.41.39-2.7-.83-.18-.73.42-1.11.76-1.67,2.17-3.5-.07-7.61-4-8.21-.35-.05-.92.09-1.07-.38-.24-.74.58-.73,1.08-.7,1.2.08,2.67.75,3.59,1.52.38.32.9,1.07,1.25,1.27,1.13.66,3.35.61,4.11,1.44.33.36.41,1.13,1,1.12,1.12-.03.39-1.69.12-2.23-.66-1.34-1.96-2.11-2.63-3.42-.75-1.46-.64-3.34.44-4.61.57-.66.89-.47,1.67-.66,1.68-.4,3.25-1.48,4.28-2.85.2-.26,1.17-1.81,1.01-2.03ZM30.66,5.37c-.67.07-.69,1.18.17,1.06.64-.09.49-1.12-.17-1.06ZM6.63,7.4c-1.18-1.18-3.13-1.25-4.42-.21-.39.31-1.41,1.39-.82,1.83s.84-.27,1.11-.6c1.48-1.82,4.3-.71,3.96,1.81-.18,1.34-2.18,3.17-3,4.32-1.43,1.99-2.23,4.27-2.34,6.74-.15,3.25,1.11,5.78,4.26,6.9.09-.04,0-.12-.02-.17-.14-.27-.46-1.01-.58-1.17-.1-.13-.56-.35-.73-.49-2.89-2.41-2.01-7.5-.27-10.36.86-1.41,2.11-2.48,2.99-3.82.96-1.46,1.21-3.44-.12-4.78Z"/>
      <path class="cls-1" d="M13.26,2.16c1.53-.16,2.56.98,3.01,2.32.23.69.23,1.13-.22,1.73-.64.84-1.19,1.39-2.3,1.36-3.9-.11-3.75-5.07-.48-5.41ZM13.39,3.23c-1.51.13-2.09,2.14-.79,2.96.36.22,1.23.37,1.62.28.24-.06,1.06-.95,1.11-1.17.05-.25-.33-1.11-.49-1.35-.31-.46-.89-.77-1.45-.72Z"/>
      <path class="cls-1" d="M21.2,4.87c2.26-.39,2.67,2.89.6,3.18s-2.48-2.86-.6-3.18ZM21.18,6.85c.51.46,1.28-.27.74-.77-.59-.54-1.21.34-.74.77Z"/>
    </g>
  </g>
</svg>