<?xml version="1.0" encoding="UTF-8"?>
<svg id="Capa_2" data-name="Capa 2" xmlns="http://www.w3.org/2000/svg" viewBox="0 0 32.32 36.08">
  <defs>
    <style>
      .cls-1 {
        fill: #9fc42c;
      }
    </style>
  </defs>
  <g id="Capa_1-2" data-name="Capa 1">
    <g>
      <path class="cls-1" d="M24.3,36.05c-1.59-.15-3.36-1.03-4.48-2.14-.19-.19-.62-.85-.84-.89H.81c-.55,0-.7-.48-.74-.95-.13-1.52-.07-4.05.15-5.55.67-4.64,4.14-8.76,8.66-10.04-.49-.38-1.04-.66-1.51-1.06C.48,9.67,5.76-1.5,14.6.17c7.39,1.4,9.56,11.09,3.5,15.57-.36.27-.78.46-1.12.74,2.78.78,5.17,2.66,6.76,5.03.61.03,1.24-.08,1.87-.04,3.38.23,6.21,2.98,6.65,6.31.53,4.04-2.43,7.91-6.54,8.26-.38.03-1.03.03-1.41,0ZM12.17,1.65c-4.77.44-7.7,5.55-5.82,9.93,2.33,5.43,9.98,5.84,12.82.66,2.81-5.11-1.24-11.12-7-10.59ZM1.72,31.55h16.49l.07-.14c-1.24-3.12-.13-6.69,2.59-8.6.44-.31.9-.57,1.39-.79-5.11-7.15-16.91-5.84-19.96,2.59-.65,1.81-.91,4.81-.69,6.71.01.1,0,.18.11.24ZM24.43,23.05c-4.2.39-6.46,5.04-4.34,8.66,2.35,4.01,8.35,3.66,10.19-.63,1.74-4.04-1.49-8.44-5.85-8.03Z"/>
      <path class="cls-1" d="M25.85,27.96h2.36c.46,0,.74.73.52,1.15-.05.09-.37.4-.45.4h-2.43v2.36c0,.32-.49.67-.81.67s-.81-.35-.81-.67v-2.36h-2.5s-.29-.23-.33-.3c-.28-.43-.03-1.25.47-1.25h2.36v-2.29c0-.32.49-.67.81-.67.3,0,.81.39.81.67v2.29Z"/>
    </g>
  </g>
</svg>