<?xml version="1.0" encoding="UTF-8"?>
<svg id="Capa_2" data-name="Capa 2" xmlns="http://www.w3.org/2000/svg" viewBox="0 0 19.57 17.97">
  <defs>
    <style>
      .cls-1 {
        fill: #fff;
      }
    </style>
  </defs>
  <g id="Capa_1-2" data-name="Capa 1">
    <path class="cls-1" d="M18.01,9.45v1.64c0,.5-1.37.91-1.5-.19-.05-.46.12-2.01-.09-2.25l-6.6-3.29-6.78,3.38v7.72h3.74v-4.16c0-.16.32-.89.42-1.08,1.1-1.99,4.12-1.97,5.2.05.08.15.37.82.37.94v4.26h3.74v-3.42c0-.52,1.28-.87,1.48.02.11.49.1,3.73.01,4.28-.05.3-.24.51-.53.59l-15.23.02c-.23.06-.7-.34-.7-.52v-8c-.53.36-1.22.46-1.48-.25.07-1.24-.16-2.7-.02-3.91.02-.16.09-.41.19-.54.4-.53,3.11-1.47,3.8-1.94.71-.21,1.22.43.9,1.1-.2.42-2.9,1.38-3.39,1.85v2.01l7.89-3.95c.51-.22,1.11.2,1.58.42,2.36,1.11,4.63,2.43,7,3.53v-2.01L9.68,1.63c-.71.22-2.04,1.24-2.7,1.31-.8.09-1.2-.87-.42-1.43.47-.33,2.11-1.12,2.68-1.34.21-.08.42-.2.66-.17l9.45,4.78c.09.09.12.21.14.33.19,1.19-.11,2.85-.01,4.09-.26.72-.94.62-1.48.25ZM11.27,16.47v-4.07c0-.6-.97-1.19-1.54-1.18-.53.01-1.45.64-1.45,1.18v4.07h2.99Z"/>
  </g>
</svg>