<?xml version="1.0" encoding="UTF-8"?>
<svg id="Capa_2" data-name="Capa 2" xmlns="http://www.w3.org/2000/svg" viewBox="0 0 42.32 46.1">
  <defs>
    <style>
      .cls-1 {
        fill: #fff;
      }
    </style>
  </defs>
  <g id="Capa_1-2" data-name="Capa 1">
    <g>
      <path class="cls-1" d="M41.78,46.1H.55c-.29-.23-.58-.43-.54-.85l.04-24.36,5.49-5.58c.22-.79-.25-2.6.36-3.16s2.37-.05,3.16-.35L20.89.05c.29-.1.6-.05.82.18l11.56,11.57c.79.3,2.53-.22,3.16.35s.14,2.37.36,3.16l5.49,5.58.04,24.27c.01.45-.2.7-.54.94ZM30.97,11.89L21.13,2.09l-9.78,9.81h19.63ZM35.03,13.6H7.3v12.83l13.9,13.81,13.83-13.81v-12.83ZM5.59,24.67v-7.02l-3.5,3.54,3.5,3.48ZM36.74,24.67l3.5-3.54-3.5-3.48v7.02ZM1.72,43.13l9.99-9.95L1.72,23.23v19.9ZM40.61,43.13v-19.9l-9.99,9.95,9.99,9.95ZM39.35,44.39l-9.95-9.99-7.69,7.7c-.33.28-.75.28-1.09,0l-7.69-7.7-9.95,9.99h36.37Z"/>
      <path class="cls-1" d="M9.89,25.87l22.61.03c.95.6.4,1.73-.67,1.66H10.49c-1.11.07-1.63-1.15-.6-1.69Z"/>
      <path class="cls-1" d="M32.75,23.03c-.14.13-.44.21-.64.21H10.13c-.99-.09-1.1-1.4-.12-1.65l21.91-.07c.8-.12,1.45.93.82,1.51Z"/>
      <path class="cls-1" d="M13.67,17.31l14.84-.02c1.18.14,1.04,1.64-.09,1.71h-14.49c-1.05-.08-1.29-1.37-.25-1.69Z"/>
      <path class="cls-1" d="M14.21,30.1l13.76-.02c1.13.13,1.13,1.58,0,1.71h-13.6c-1.05-.13-1.15-1.4-.16-1.69Z"/>
    </g>
  </g>
</svg>