<?xml version="1.0" encoding="UTF-8"?>
<svg id="Capa_2" data-name="Capa 2" xmlns="http://www.w3.org/2000/svg" viewBox="0 0 186.44 186.53">
  <defs>
    <style>
      .cls-1 {
        fill: #fff;
      }
    </style>
  </defs>
  <g id="Capa_1-2" data-name="Capa 1">
    <g>
      <path class="cls-1" d="M186.44,87.77v10.93l-2.07,14.14c-7.54,35.48-36.09,64.02-71.59,71.56l-14.14,2.07c-3.61-.15-7.32.21-10.93,0C5.81,181.77-30.59,79.44,30.69,24.03c57.99-52.44,151.32-13.57,155.75,63.74ZM85.82,9.58C29.92,13.5-5.6,73.29,15.41,124.91c25.18,61.87,110.13,70.81,147.44,15.21C202.43,81.11,156.16,4.64,85.82,9.58Z"/>
      <path class="cls-1" d="M74.47,72.71c-5.22,5.22-15.64,2.76-16.28-5.14-.72-8.91,5.91-17.09,13.01-21.62,20.78-13.25,59.84-4.16,56.95,25.61-1.45,14.94-15.78,19.35-24.42,28.03-4.28,4.3-3.52,12.2-10.41,13.63-8.46,1.76-13.47-4.81-11.71-12.8,3.23-14.72,26.47-18.49,24.64-33.92-1.31-11.09-17.89-13.14-24.56-6.06-3.09,3.29-4.13,9.17-7.23,12.26Z"/>
      <path class="cls-1" d="M99.24,126.14c11.04,10.78-5.27,27.82-16.44,16.98-11.2-10.87,5.54-27.63,16.44-16.98Z"/>
    </g>
  </g>
</svg>