<?xml version="1.0" encoding="UTF-8"?>
<svg id="Capa_2" data-name="Capa 2" xmlns="http://www.w3.org/2000/svg" viewBox="0 0 35.21 22.26">
  <defs>
    <style>
      .cls-1 {
        fill: #9fc42c;
      }
    </style>
  </defs>
  <g id="Capa_1-2" data-name="Capa 1">
    <g>
      <path class="cls-1" d="M0,15.69c.19-.26.32-.37.65-.41,1.59-.18,3.52.13,5.15,0,.4.05.72.39.54.8-.03.06-.23.29-.26.29h-2.54l-.1.1v1.1l.1.1h3.13c1.08-3.19,5.48-3.12,6.64,0h11.38v-4.3c0-.38.94-.71,1.09-.05.14,1.3-.14,2.84.01,4.11.02.18.16.36.28.2.12-.15.24-.56.38-.78,1.58-2.41,5.33-1.91,6.22.82h1.44v-2.48h-1c-.34,0-.97-.56-1.14-.86-.25-.44-.28-1.63-.2-2.13.02-.15.23-.45.37-.45h1.82c0-.5-.89-1.24-1.34-1.24h-6.84c.04.54.05,1.31-.7,1.15-.14-.03-.4-.31-.4-.43V1.11H3.44v10.21c0,.05-.18.26-.25.3-.42.24-.82-.06-.85-.51V1.15C2.37.55,2.86.03,3.47,0c7.17.05,14.37-.09,21.53.07.28.02.79.55.79.79v1.48c1.37.08,2.87-.11,4.23,0,1.06.09,2.06.81,2.22,1.91.07.47.17,1.38-.39,1.54l.87,3.55c.1.18.66.27.91.39.9.44,1.5,1.41,1.58,2.41l-.03,6.23c-.21.68-1.75.32-2.31.41-.25,4.63-6.76,4.63-7.01,0l-12.38.04c-.3,4.61-6.79,4.57-7.01-.04-.93-.13-3.01.3-3.72-.31-.12-.11-.41-.55-.41-.69v-1.41c-.43-.08-1.81.13-2.1-.06-.09-.06-.14-.21-.24-.28v-.34ZM31.15,4.69c.1-.53-.57-1.24-1.07-1.24h-4.3v1.24h5.36ZM30.74,5.86h-4.95v3.58h5.78l-.83-3.58ZM34.1,12.87h-1.24c-.12,1.08.16,1.35,1.24,1.24v-1.24ZM9.89,16.39c-3.12.06-3.01,4.95.19,4.8s2.96-4.86-.19-4.8ZM29.34,16.4c-3.14.03-3.09,4.83.06,4.79s3.07-4.82-.06-4.79Z"/>
      <path class="cls-1" d="M18.61,5.32c.55-.12.9.41.6.88l-5.53,5.47c-.21.07-.43.04-.59-.11-.82-.99-2.12-1.9-2.89-2.89-.48-.62-.03-1.23.65-.92l2.64,2.57,5.11-5Z"/>
      <path class="cls-1" d="M14.63,15.29l8.17-.02c.71.03.93.9.21,1.1h-8.39c-.69-.08-.67-.96.02-1.09Z"/>
      <path class="cls-1" d="M1.63,12.95l7.14-.02c.73.09.76,1.02.07,1.1H1.68c-.69-.08-.66-.88-.05-1.09Z"/>
      <path class="cls-1" d="M29.07,17.7c1.99-.37,1.76,2.62.03,2.21-1.18-.29-1.12-2-.03-2.21Z"/>
      <path class="cls-1" d="M10.77,17.98c1.04,1.03-.55,2.73-1.63,1.59s.61-2.61,1.63-1.59Z"/>
    </g>
  </g>
</svg>