<?xml version="1.0" encoding="UTF-8"?>
<svg id="Capa_2" data-name="Capa 2" xmlns="http://www.w3.org/2000/svg" viewBox="0 0 336.34 335.99">
  <defs>
    <style>
      .cls-1 {
        fill: #fff;
      }
    </style>
  </defs>
  <g id="Capa_1-2" data-name="Capa 1">
    <g>
      <path class="cls-1" d="M157.45.35C25.54,8.6-45.95,160.75,32.81,267.79c71.77,97.54,220.65,88.89,280.92-15.91C380.56,135.68,290.53-7.98,157.45.35ZM290.95,243.34c-53.11,87.54-180.02,92.17-239.71,9.02C-14.55,160.69,46.16,31.81,158.2,24.35c116.35-7.75,193.51,118.84,132.75,219Z"/>
      <path class="cls-1" d="M242.73,156.13h-62.62v-62.62c0-4.93-7.64-9.55-12.38-9.44-4.44.11-11.62,4.86-11.62,9.44v62.62h-62.62c-4.57,0-9.33,7.18-9.44,11.62-.11,4.73,4.5,12.38,9.44,12.38h62.62v62.62c0,4.93,7.64,9.55,12.38,9.44,4.44-.11,11.62-4.86,11.62-9.44v-62.62h62.62c4.93,0,9.55-7.64,9.44-12.38-.11-4.44-4.86-11.62-9.44-11.62Z"/>
    </g>
  </g>
</svg>