<?xml version="1.0" encoding="UTF-8"?>
<svg id="Capa_2" data-name="Capa 2" xmlns="http://www.w3.org/2000/svg" viewBox="0 0 368.62 361.06">
  <defs>
    <style>
      .cls-1 {
        fill: #9fc42c;
      }
    </style>
  </defs>
  <g id="Capa_1-2" data-name="Capa 1">
    <g>
      <path class="cls-1" d="M248.73,197.66c-2.76,24.11-22.24,45.26-46.42,48.66l46.03,77.1c7.16,22.66-33,50.14-49.42,31.46-1.25-1.42-2.43-3.8-3.47-5.51-20.54-33.76-37-73.52-58.39-106.29-5.48-8.39-13.97-15.31-18.45-24.22-3.52-7.01-5.54-15.57-5.37-23.45C49.79,194.24,3.99,142.01.21,80.51c-.19-3.04-.5-15.55.38-17.57.41-.94,1.95-2.13,3.02-2.28l4.03,1.18c24.54,29.82,53.57,59.6,92.11,69.94-28.91-31.68-38.51-69.59-29.71-111.67.74-3.52,3.48-15.77,5.1-18.11,1.28-1.84,3.84-2.53,5.88-1.58l93.6,121.29c5.76-.53,11.53-2.99,17.55-3.43,24.78-1.82,31.15,9.34,50.8,18.12,36.06,16.12,78.02,26.3,113.51,42.94,26.79,12.56,4.39,58.31-20.5,54.92l-87.26-36.61ZM81.78,14.27l-1.48.46c-10.75,37.62-4.36,74.31,20.23,104.69,2.41,2.97,11.9,13.91,14.53,15.41,1.01.58,4.34,1.29,5.32,1.14.62-.1,7.19-7.23,9.07-8.54,9.93-6.95,23.25-9.18,34.67-4.62L81.78,14.27ZM116.23,144.52c-20.41-3.06-39.49-10.3-56.83-21.41-19.15-12.27-34.51-29.05-50.21-45.22,1.19,57.54,45.16,107.66,104.06,108.96.56-.42,2.97-12.3,3-13.56.08-3.06-2.02-7.26-2.31-11.16-.43-5.77-.02-12.27,2.28-17.61ZM185.85,174.46c13.03-1.83,28.53-.02,41.13,4.15,7.9,2.61,15.09,6.98,22.73,10.21,28.97,12.24,57.99,24.37,87.01,36.5,14.73,3.22,29.09-24.99,20.88-35.1-1.27-1.57-3.3-2.32-5.07-3.16-32.23-15.25-71.84-25.99-105.49-39.73-18.2-7.43-34.05-22.36-53.99-20.68-5.11.43-10.49,2.36-15.44,3.66-.56.77,4.32,5.67,5.26,7.08,7.38,11.14,7.57,24.82,2.98,37.07ZM145.23,129.72c-30.48,4.74-30.29,54.26,2.82,57.45,43.12,4.16,42.89-64.56-2.82-57.45ZM221.03,185.69c-11.4-2.22-23.12-3.91-34.8-2.99-4.06.32-9.46.31-9.4,5.56.05,4.55,6.49,30.23,9.76,32.29,16.55-3.41,31.56-18.14,34.44-34.86ZM168.62,192.42c-.56-.55-6.74,2.3-8.21,2.65-13.6,3.24-27.93-1.12-37.08-11.61-1.16.73-.98,1.48-1.14,2.59-4.07,29.15,12.56,36.63,25.59,58.27,20.2,33.54,37.1,70.03,57.19,103.75,9.07,11.23,30-2.76,34.14-13.66,1.96-5.14,1.55-6.72-.75-11.5-9.43-19.6-26.37-43.74-38-63.05-13-21.58-29.29-41.26-31.75-67.43ZM240.47,193.96l-11.18-4.51c-5.15,18.61-19.32,33.96-38.21,38.91l5.97,9.36c4.26,2.62,19.47-5.19,23.47-7.99,11.8-8.29,18.5-21.52,19.95-35.76Z"/>
      <path class="cls-1" d="M138.2,171.19c-16.27-16.52,7.19-41.84,25.2-27.07,18.92,15.51-7.15,45.4-25.2,27.07ZM148.2,149.16c-8.75,2-8.69,17.62,2.09,18.59,15.02,1.35,14.18-22.3-2.09-18.59Z"/>
    </g>
  </g>
</svg>