<?xml version="1.0" encoding="UTF-8"?>
<svg id="Capa_2" data-name="Capa 2" xmlns="http://www.w3.org/2000/svg" viewBox="0 0 199.6 128.99">
  <defs>
    <style>
      .cls-1, .cls-2 {
        fill: #fff;
      }

      .cls-3 {
        letter-spacing: -.03em;
      }

      .cls-3, .cls-4 {
        font-family: Lato-Black, Lato;
        font-weight: 800;
      }

      .cls-2 {
        font-size: 43.52px;
      }

      .cls-5 {
        font-family: Lato-Light, Lato;
        font-weight: 300;
      }
    </style>
  </defs>
  <g id="Capa_1-2" data-name="Capa 1">
    <g>
      <g>
        <path class="cls-1" d="M98.18,15.79l-.28-.1c-3.34-1.14-7.01.65-8.15,3.99l-21.89,48.75c-1.14,3.34.65,7.01,3.99,8.15l.28.1c3.34,1.14,7.01-.65,8.15-3.99l21.89-48.75c1.14-3.34-.65-7.01-3.99-8.15Z"/>
        <path class="cls-1" d="M76.22,76.59l-.28.1c-3.34,1.14-7.01-.65-8.15-3.99l-14.32-48.75c-1.14-3.34.65-7.01,3.99-8.15l.28-.1c3.34-1.14,7.01.65,8.15,3.99l14.32,48.75c1.14,3.34-.65,7.01-3.99,8.15Z"/>
        <path class="cls-1" d="M93.69,15.79l.28-.1c3.34-1.14,7.01.65,8.15,3.99l18.86,48.75c1.14,3.34-.65,7.01-3.99,8.15l-.28.1c-3.34,1.14-7.01-.65-8.15-3.99l-18.86-48.75c-1.14-3.34.65-7.01,3.99-8.15Z"/>
        <path class="cls-1" d="M139.78,17.19c-3.92,0-7.33-2.16-9.14-5.35l-22.07,56.59c-1.14,3.34.65,7.01,3.99,8.15l.28.1c3.34,1.14,7.01-.65,8.15-3.99l21.82-55.95c-.96.29-1.98.45-3.03.45Z"/>
        <circle class="cls-1" cx="139.78" cy="6.7" r="6.7"/>
      </g>
      <text class="cls-2" transform="translate(0 120.9)"><tspan class="cls-5" x="0" y="0">wo</tspan><tspan class="cls-4" x="55.61" y="0">wor</tspan><tspan class="cls-3" x="134.2" y="0">k</tspan><tspan class="cls-4" x="157.96" y="0">er</tspan></text>
    </g>
  </g>
</svg>