<?xml version="1.0" encoding="UTF-8"?>
<svg id="Capa_2" xmlns="http://www.w3.org/2000/svg" version="1.1" viewBox="0 0 250.8 55.6">
  <!-- Generator: Adobe Illustrator 29.8.2, SVG Export Plug-In . SVG Version: 2.1.1 Build 3)  -->
  <defs>
    <style>
      .st0 {
        fill: #a0c62d;
      }

      .st1 {
        isolation: isolate;
      }

      .st2 {
        fill: #626161;
      }
    </style>
  </defs>
  <g id="Capa_1-2">
    <g>
      <g class="st1">
        <g class="st1">
          <path class="st2" d="M.6,19.4h1.9c.2,0,.4,0,.6.2.2.1.3.3.3.4l6.6,20.8c.1.4.2.8.3,1.2,0,.4.1.7.2,1.1,0-.4.2-.7.3-1.1.1-.4.2-.8.4-1.2l7.1-21c.1-.4.4-.6.7-.6h1c.4,0,.6.2.8.6l7,21c.3.8.5,1.6.6,2.3,0-.4.1-.7.2-1.1,0-.4.2-.8.3-1.2l6.7-20.8c.1-.4.4-.6.9-.6h1.9l-8.8,26.3h-1.9c-.3,0-.5-.2-.6-.6l-7.2-21.4c0-.3-.2-.5-.2-.8,0-.3-.1-.5-.2-.8,0,.3-.1.5-.2.8s-.1.5-.2.8l-7.3,21.4c-.1.4-.3.6-.6.6h-1.8L.6,19.4Z"/>
          <path class="st2" d="M53.3,19c1.9,0,3.6.3,5.1,1,1.5.6,2.7,1.6,3.8,2.7,1,1.2,1.8,2.6,2.3,4.3.5,1.7.8,3.5.8,5.6s-.3,3.9-.8,5.6c-.5,1.7-1.3,3.1-2.3,4.3-1,1.2-2.3,2.1-3.8,2.7-1.5.6-3.2,1-5.1,1s-3.6-.3-5.1-1c-1.5-.6-2.8-1.5-3.8-2.7-1-1.2-1.8-2.6-2.4-4.3-.5-1.7-.8-3.5-.8-5.6s.3-3.9.8-5.6c.5-1.7,1.3-3.1,2.4-4.3,1-1.2,2.3-2.1,3.8-2.7,1.5-.6,3.2-1,5.1-1ZM53.3,44.1c1.6,0,2.9-.3,4.1-.8,1.2-.5,2.2-1.3,2.9-2.3.8-1,1.4-2.2,1.8-3.6.4-1.4.6-3,.6-4.8s-.2-3.3-.6-4.8c-.4-1.4-1-2.7-1.8-3.7-.8-1-1.8-1.8-2.9-2.3-1.2-.5-2.5-.8-4.1-.8s-2.9.3-4.1.8c-1.2.5-2.2,1.3-2.9,2.3-.8,1-1.4,2.2-1.8,3.7-.4,1.4-.6,3-.6,4.8s.2,3.4.6,4.8,1,2.6,1.8,3.6c.8,1,1.8,1.8,2.9,2.3,1.2.5,2.5.8,4.1.8Z"/>
        </g>
        <g class="st1">
          <path class="st2" d="M133.8,18.2c2,0,3.9.3,5.5,1,1.6.7,3.1,1.6,4.2,2.8,1.2,1.2,2.1,2.7,2.7,4.4.6,1.7,1,3.7,1,5.8s-.3,4.1-1,5.8c-.6,1.7-1.5,3.2-2.7,4.4-1.2,1.2-2.6,2.2-4.2,2.8s-3.5,1-5.5,1-3.9-.3-5.5-1c-1.7-.7-3.1-1.6-4.2-2.8-1.2-1.2-2.1-2.7-2.7-4.4-.6-1.7-1-3.7-1-5.8s.3-4.1,1-5.8c.6-1.7,1.6-3.2,2.7-4.4s2.6-2.1,4.2-2.8c1.7-.7,3.5-1,5.5-1ZM133.8,41.1c2.3,0,3.9-.8,5-2.3s1.6-3.7,1.6-6.7-.5-5.2-1.6-6.7-2.8-2.3-5-2.3-4,.8-5.1,2.3c-1.1,1.5-1.6,3.8-1.6,6.7s.5,5.1,1.6,6.7c1.1,1.5,2.8,2.3,5.1,2.3Z"/>
          <path class="st2" d="M152.3,45.7v-27.2h3.8c.7,0,1.1.1,1.4.4s.4.7.5,1.3l.4,3.3c1-1.7,2.1-3,3.4-4s2.8-1.5,4.4-1.5,2.5.3,3.3.9l-.8,4.9c0,.3-.2.5-.3.7-.2.1-.4.2-.7.2s-.6,0-1.1-.2c-.5-.1-1.1-.2-1.8-.2-1.4,0-2.5.4-3.5,1.1-1,.8-1.8,1.8-2.5,3.3v16.9h-6.5Z"/>
        </g>
        <g class="st1">
          <path class="st2" d="M181.4,6.4v22.5h1.2c.4,0,.8,0,1-.2s.5-.4.8-.7l6.7-8.3c.3-.4.6-.6,1-.8s.8-.3,1.3-.3h6l-8.4,10.1c-.3.4-.6.7-.9,1-.3.3-.7.6-1,.8.4.3.7.6,1,.9s.6.7.8,1.1l9.1,13.2h-5.9c-.5,0-.9,0-1.3-.3-.4-.2-.7-.5-1-.9l-6.9-10.3c-.3-.4-.5-.7-.8-.8-.3-.1-.7-.2-1.2-.2h-1.5v12.4h-6.5V6.4h6.5Z"/>
        </g>
        <g class="st1">
          <path class="st2" d="M214.9,18.2c1.7,0,3.3.3,4.7.8,1.4.5,2.7,1.3,3.7,2.4,1,1,1.9,2.3,2.4,3.9.6,1.5.9,3.3.9,5.2s0,.9,0,1.2c0,.3-.1.6-.2.8-.1.2-.3.3-.5.4-.2,0-.4.1-.7.1h-16.8c.2,2.8.9,4.8,2.2,6.1s3,2,5.2,2,2-.1,2.7-.4,1.4-.5,2-.8,1.1-.6,1.5-.8.9-.4,1.3-.4.5,0,.7.2c.2.1.4.3.5.5l1.9,2.4c-.7.8-1.5,1.6-2.4,2.1-.9.6-1.8,1-2.8,1.4-1,.3-2,.6-3,.7-1,.1-2,.2-3,.2-1.9,0-3.6-.3-5.3-.9-1.6-.6-3-1.6-4.2-2.8-1.2-1.2-2.1-2.7-2.8-4.6s-1-3.9-1-6.3.3-3.6.9-5.2,1.5-3.1,2.6-4.3c1.1-1.2,2.5-2.2,4.1-2.9,1.6-.7,3.4-1.1,5.5-1.1ZM215,22.8c-1.9,0-3.4.5-4.5,1.6-1.1,1.1-1.8,2.6-2.1,4.6h12.3c0-.8-.1-1.6-.3-2.4-.2-.7-.6-1.4-1.1-2-.5-.6-1.1-1-1.8-1.3-.7-.3-1.6-.5-2.5-.5Z"/>
          <path class="st2" d="M231.9,45.7v-27.2h3.8c.7,0,1.1.1,1.4.4s.4.7.5,1.3l.4,3.3c1-1.7,2.1-3,3.4-4s2.8-1.5,4.4-1.5,2.5.3,3.3.9l-.8,4.9c0,.3-.2.5-.3.7-.2.1-.4.2-.7.2s-.6,0-1.1-.2c-.5-.1-1.1-.2-1.8-.2-1.4,0-2.5.4-3.5,1.1-1,.8-1.8,1.8-2.5,3.3v16.9h-6.5Z"/>
        </g>
      </g>
      <g>
        <path class="st2" d="M94.3,10.9h-.2c-2-.7-4.2.3-4.9,2.3l-13.1,29.1c-.7,2,.4,4.2,2.4,4.9h.2c2,.7,4.2-.3,4.9-2.3l13.1-29.1c.7-2-.4-4.2-2.4-4.9Z"/>
        <path class="st0" d="M81.2,47.1h-.2c-2,.7-4.2-.3-4.9-2.3l-8.5-29.1c-.7-2,.4-4.2,2.4-4.9h.2c2-.7,4.2.3,4.9,2.3l8.5,29.1c.7,2-.4,4.2-2.4,4.9Z"/>
        <path class="st0" d="M91.6,10.9h.2c2-.7,4.2.3,4.9,2.3l11.2,29.1c.7,2-.4,4.2-2.4,4.9h-.2c-2,.7-4.2-.3-4.9-2.3l-11.2-29.1c-.7-2,.4-4.2,2.4-4.9Z"/>
        <path class="st2" d="M119.1,11.7c-2.3,0-4.4-1.3-5.4-3.2l-13.2,33.7c-.7,2,.4,4.2,2.4,4.9h.2c2,.7,4.2-.3,4.9-2.3l13-33.4c-.6.2-1.2.3-1.8.3Z"/>
        <circle class="st0" cx="119.1" cy="5.4" r="4"/>
      </g>
    </g>
  </g>
</svg>