<?xml version="1.0" encoding="UTF-8"?>
<svg id="Capa_2" data-name="Capa 2" xmlns="http://www.w3.org/2000/svg" viewBox="0 0 179.58 51.46">
  <defs>
    <style>
      .cls-1 {
        fill: #fff;
      }
    </style>
  </defs>
  <g id="Capa_1-2" data-name="Capa 1">
    <g>
      <path class="cls-1" d="M13.48,15.51c.04-.19.09-.38.12-.57.04.19.08.38.13.57.05.19.11.38.17.57l5.19,15.37c.09.27.23.4.44.4h1.33l6.34-18.93h-1.33c-.33,0-.55.15-.65.46l-4.8,14.94c-.1.29-.18.57-.24.85-.06.27-.11.54-.16.81-.11-.53-.27-1.08-.46-1.66l-5-15.07c-.09-.28-.27-.42-.55-.42h-.74c-.27,0-.44.14-.53.42l-5.08,15.07c-.1.29-.19.57-.27.84-.08.27-.15.53-.21.8-.05-.27-.1-.53-.15-.8-.05-.27-.12-.55-.21-.84L2.05,13.38c-.04-.11-.11-.22-.23-.31-.11-.1-.26-.14-.44-.14H0l6.34,18.93h1.27c.23,0,.38-.13.46-.4l5.25-15.37c.06-.19.12-.38.16-.57Z"/>
      <path class="cls-1" d="M31.56,29.46c.74.85,1.65,1.5,2.72,1.96,1.07.46,2.29.68,3.64.68s2.57-.23,3.64-.68c1.07-.46,1.98-1.11,2.71-1.96.74-.85,1.3-1.87,1.68-3.06.39-1.19.58-2.53.58-4.01s-.19-2.83-.58-4.02c-.39-1.2-.95-2.22-1.68-3.07-.74-.85-1.64-1.51-2.71-1.97-1.07-.46-2.29-.69-3.64-.69s-2.57.23-3.64.69c-1.07.46-1.98,1.12-2.72,1.97-.74.85-1.31,1.87-1.69,3.07-.39,1.2-.58,2.54-.58,4.02s.19,2.82.58,4.01c.39,1.19.95,2.21,1.69,3.06ZM31.58,18.96c.29-1.03.71-1.91,1.27-2.64.56-.73,1.27-1.29,2.11-1.68.84-.39,1.83-.59,2.96-.59s2.11.2,2.96.59c.84.39,1.55.95,2.11,1.68.56.73.99,1.61,1.27,2.64.28,1.03.42,2.17.42,3.42s-.14,2.41-.42,3.43c-.28,1.02-.7,1.89-1.27,2.62-.56.72-1.27,1.28-2.11,1.66-.84.39-1.83.58-2.96.58s-2.12-.19-2.96-.58-1.55-.94-2.11-1.66c-.56-.72-.99-1.6-1.27-2.62-.29-1.02-.43-2.17-.43-3.43s.14-2.4.43-3.42Z"/>
      <path class="cls-1" d="M105.32,17.73c-.49-1.25-1.17-2.31-2.05-3.19-.88-.88-1.94-1.55-3.17-2.02-1.23-.47-2.59-.7-4.09-.7s-2.88.23-4.12.7c-1.24.47-2.3,1.14-3.2,2.02-.89.88-1.59,1.94-2.07,3.19-.49,1.25-.73,2.65-.73,4.21s.24,2.99.73,4.25c.49,1.26,1.18,2.33,2.07,3.22.89.88,1.96,1.56,3.2,2.04,1.24.48,2.61.71,4.12.71s2.86-.24,4.09-.71c1.23-.48,2.29-1.15,3.17-2.04.88-.88,1.57-1.95,2.05-3.22.49-1.26.73-2.68.73-4.25s-.24-2.96-.73-4.21ZM99.01,26.35c-.64.96-1.64,1.44-3,1.44s-2.42-.48-3.06-1.44c-.65-.96-.97-2.41-.97-4.37s.32-3.41.97-4.36c.65-.95,1.67-1.43,3.06-1.43s2.36.48,3,1.43c.64.95.96,2.4.96,4.36s-.32,3.41-.96,4.37Z"/>
      <path class="cls-1" d="M117.26,12.72c-.9.65-1.71,1.53-2.44,2.64l-.32-1.85c-.05-.25-.11-.47-.18-.65-.07-.18-.17-.32-.3-.43-.13-.11-.3-.19-.49-.24-.2-.05-.44-.08-.73-.08h-3.5v19.73h5.9v-12.1c.89-1.65,2.11-2.47,3.65-2.47.44,0,.81.03,1.1.09.29.06.55.09.76.09.25,0,.46-.05.61-.16.15-.11.25-.29.3-.56l.76-4.34c-.55-.43-1.27-.65-2.17-.65-1.07,0-2.05.32-2.95.97Z"/>
      <path class="cls-1" d="M130.91,23.12h1.14c.38,0,.67.05.86.14s.37.3.55.62l3.73,6.98c.2.37.47.62.79.77.32.15.71.22,1.15.22h5.33l-5.56-9.44c-.42-.71-.91-1.28-1.48-1.71.33-.2.64-.43.92-.68.29-.25.55-.55.79-.88l5.1-7.02h-5.4c-.46,0-.83.08-1.13.23-.3.15-.55.39-.77.72l-3.73,5.56c-.18.27-.37.45-.56.55-.2.1-.48.15-.85.15h-.87V3.37h-5.9v28.48h5.9v-8.73Z"/>
      <path class="cls-1" d="M147.43,29.48c.91.89,1.97,1.56,3.18,2.01,1.21.45,2.51.68,3.89.68.67,0,1.38-.05,2.12-.14s1.48-.27,2.23-.51c.74-.25,1.47-.59,2.17-1.03.7-.44,1.36-1.01,1.97-1.7l-1.71-2.11c-.24-.34-.6-.51-1.07-.51-.36,0-.69.08-1.02.25-.32.17-.68.35-1.07.55-.39.2-.83.39-1.32.55-.49.16-1.08.25-1.77.25-1.28,0-2.33-.37-3.14-1.11-.81-.74-1.31-1.94-1.5-3.59h11.38c.27,0,.49-.03.66-.1.17-.06.31-.18.41-.34.1-.16.17-.39.21-.67.04-.28.06-.64.06-1.08,0-1.42-.22-2.69-.66-3.81-.44-1.12-1.05-2.07-1.83-2.84-.78-.77-1.71-1.36-2.8-1.77-1.08-.41-2.28-.61-3.59-.61-1.51,0-2.86.26-4.06.78-1.2.52-2.22,1.22-3.06,2.11-.84.89-1.49,1.92-1.94,3.1s-.68,2.43-.68,3.75c0,1.75.26,3.29.79,4.6.53,1.32,1.24,2.42,2.15,3.31ZM151.7,16.86c.63-.64,1.52-.96,2.65-.96.63,0,1.17.11,1.62.32.44.22.8.5,1.08.85.27.35.47.75.59,1.19.12.44.18.9.18,1.37h-7.36c.2-1.2.62-2.13,1.26-2.77Z"/>
      <path class="cls-1" d="M177.41,11.75c-1.07,0-2.05.32-2.95.97-.9.65-1.71,1.53-2.44,2.64l-.32-1.85c-.05-.25-.11-.47-.18-.65-.07-.18-.17-.32-.3-.43-.13-.11-.3-.19-.49-.24-.2-.05-.44-.08-.73-.08h-3.5v19.73h5.9v-12.1c.89-1.65,2.11-2.47,3.65-2.47.44,0,.81.03,1.1.09.29.06.55.09.76.09.25,0,.46-.05.61-.16.15-.11.25-.29.3-.56l.76-4.34c-.55-.43-1.27-.65-2.17-.65Z"/>
      <path class="cls-1" d="M86.52,7.18c-.41.12-.85.19-1.3.19-1.68,0-3.14-.93-3.92-2.29l-6.79,17.41-5.44-14.05s-.04-.08-.06-.13c-.03-.08-.07-.16-.11-.23-.06-.12-.13-.23-.21-.34-.01-.02-.03-.04-.04-.05-.53-.7-1.36-1.11-2.24-1.1-.88-.01-1.71.39-2.24,1.1-.01.02-.03.04-.04.05-.08.11-.15.22-.21.34-.04.08-.07.15-.11.23-.02.04-.04.08-.06.13l-6.18,13.77-4.05-13.77c-.49-1.43-2.06-2.2-3.49-1.71l-.12.04c-1.43.49-2.2,2.06-1.71,3.49l6.14,20.9c.4,1.16,1.51,1.87,2.68,1.84,1.17.03,2.28-.68,2.68-1.84l6.51-14.51,5.61,14.51c.4,1.16,1.5,1.87,2.66,1.84,1.16.02,2.27-.69,2.66-1.84l9.36-23.99Z"/>
      <path class="cls-1" d="M85.21,5.75c1.59,0,2.87-1.29,2.87-2.87s-1.29-2.87-2.87-2.87-2.87,1.29-2.87,2.87,1.29,2.87,2.87,2.87Z"/>
      <path class="cls-1" d="M66.76,39.58l-4.62,11.75h1.7c.18,0,.34-.05.47-.15.13-.1.21-.22.26-.34l.88-2.4h4.87l.88,2.4c.05.14.14.26.26.35.12.09.28.14.47.14h1.69l-4.62-11.75h-2.23ZM66,46.89l1.43-3.89c.07-.18.14-.39.21-.63.07-.24.15-.5.22-.77.08.28.15.53.23.77.08.24.15.44.22.61l1.43,3.91h-3.75Z"/>
      <path class="cls-1" d="M83.46,46.67c0,.11.04.21.12.29.08.08.19.12.33.12h1.47v2.14c-.33.16-.68.28-1.04.37-.37.09-.79.13-1.29.13-.56,0-1.07-.1-1.54-.29-.47-.19-.88-.47-1.22-.83-.34-.36-.61-.81-.8-1.34-.19-.53-.28-1.13-.28-1.81,0-.63.09-1.2.27-1.71.18-.51.43-.95.76-1.31.33-.36.73-.64,1.2-.84.47-.2.99-.29,1.57-.29.36,0,.67.02.95.07.27.05.52.11.74.19.22.08.42.17.6.27.18.1.36.21.53.31.14.09.27.13.4.13.21,0,.37-.1.5-.3l.63-.99c-.49-.46-1.08-.82-1.78-1.11-.7-.28-1.53-.43-2.49-.43s-1.78.15-2.54.44c-.75.29-1.39.7-1.92,1.24-.53.53-.94,1.16-1.22,1.9-.29.74-.43,1.55-.43,2.43s.15,1.68.44,2.41c.3.74.71,1.37,1.23,1.9.53.53,1.15.95,1.87,1.24s1.51.45,2.36.45c.48,0,.93-.03,1.35-.08.42-.05.81-.13,1.17-.23.37-.1.71-.23,1.03-.39.32-.16.63-.35.93-.56v-4.75h-3.91v1.24Z"/>
      <path class="cls-1" d="M98.25,46.32c.41-.13.78-.3,1.1-.52.32-.22.59-.47.81-.76.22-.29.39-.61.5-.96.12-.35.17-.73.17-1.12,0-.5-.09-.95-.26-1.37s-.44-.77-.8-1.07-.83-.53-1.41-.69c-.57-.17-1.26-.25-2.06-.25h-3.58v11.75h2.19v-4.59h.93c.22,0,.38.03.49.09s.21.16.3.3l2.47,3.76c.09.14.2.25.34.33s.29.11.48.11h1.97l-2.94-4.34c-.2-.29-.44-.52-.72-.67ZM97.36,45.02c-.31.1-.67.15-1.08.15h-1.37v-3.9h1.4c.81,0,1.41.16,1.8.48.39.32.59.78.59,1.37,0,.3-.05.57-.15.82-.1.25-.24.46-.44.65-.2.18-.45.32-.76.43Z"/>
      <path class="cls-1" d="M115.79,41.16c-.52-.53-1.15-.95-1.88-1.26-.73-.3-1.54-.45-2.43-.45s-1.7.15-2.43.45-1.36.72-1.89,1.26c-.52.54-.93,1.17-1.22,1.91-.29.73-.43,1.53-.43,2.39s.14,1.66.43,2.39c.29.73.69,1.37,1.22,1.91.52.54,1.15.95,1.89,1.26.73.3,1.55.45,2.43.45s1.7-.15,2.43-.45c.73-.3,1.36-.72,1.88-1.26.52-.54.92-1.17,1.21-1.91.29-.73.43-1.53.43-2.39s-.14-1.66-.43-2.39c-.29-.73-.69-1.37-1.21-1.9ZM114.93,47.19c-.17.51-.42.95-.74,1.3-.32.35-.71.63-1.17.82-.46.19-.97.28-1.55.28s-1.09-.09-1.55-.28c-.46-.19-.85-.46-1.17-.82-.32-.36-.57-.79-.74-1.3-.17-.51-.26-1.09-.26-1.73s.09-1.22.26-1.73c.17-.51.42-.95.74-1.3.32-.36.71-.63,1.17-.82.46-.19.98-.28,1.55-.28s1.09.09,1.55.28c.46.19.85.46,1.17.82.32.36.56.79.74,1.3s.26,1.09.26,1.73-.09,1.22-.26,1.73Z"/>
      <rect class="cls-1" x="9.87" y="44.74" width="46.05" height="1.42"/>
      <rect class="cls-1" x="123.65" y="44.74" width="46.05" height="1.42"/>
    </g>
  </g>
</svg>