<?xml version="1.0" encoding="UTF-8"?>
<svg id="Capa_2" data-name="Capa 2" xmlns="http://www.w3.org/2000/svg" viewBox="0 0 32 30.02">
  <defs>
    <style>
      .cls-1 {
        fill: #9fc42c;
      }
    </style>
  </defs>
  <g id="Capa_1-2" data-name="Capa 1">
    <path class="cls-1" d="M0,13.39c.13-.34.05-1.48.44-1.66.2-.09.54-.04.64.17.14.3-.12,1.3-.14,1.7-.14,2.78,1.27,4.99,2.59,7.28.1-1.39,1.83-2.02,2.75-.94.22.26.36.6.57.87.58.76,1.45,1.3,2.27,1.76.33-.6.87-1.21,1.44-1.59.31-.2.85-.59,1.19-.32.67.53-.59,1.03-.91,1.29-1.75,1.41-1.96,4.04-.5,5.75.97,1.14,2.39,1.49,3.84,1.37l.29-2.68c.06-.29.46-.41.71-.29.23.11.2.59.19.82-.02.69-.23,1.45-.25,2.15h2.16c.28-.43-.06-1.95.69-1.95.88,0,.24,1.42.34,1.95h4.63c.04-.39.05-1.74.31-1.97.17-.15.53-.12.67.05.25.31-.09,1.49-.04,1.92h4.91c1.02,0,2.03-.97,2.15-1.98.19-1.69-1.14-2.62-2.68-2.71l-.33,3.14c-.19.54-.85.57-.93-.05-.09-.75.26-2.12.31-2.94,0-.09.04-.37-.04-.41l-7.03-1.56c-.04.41.05,1.59-.63,1.47s-.28-1.26-.25-1.72l-4.53-1.05c-.07.03-.08.08-.09.15-.1.65-.08,1.4-.2,2.05-.05.28-.11.65-.46.67-.31.02-.56-.23-.53-.53l.31-2.53c-.35.01-1,.06-1.06-.41-.08-.64.72-.56,1.15-.52,1.18.11,2.46.65,3.65.8,1.67-2.88,3.18-5.46,2.37-8.94s-4.12-6.3-7.71-4.62c-.65.31-1.09.9-1.86.82-.47-.05-1.07-.61-1.55-.82-3.01-1.34-6.09.43-7.29,3.29-.3.3-.79.08-.81-.32,0-.16.42-.96.54-1.15,1.54-2.58,4.58-3.87,7.5-2.88.48.16.88.44,1.34.63v-1.38c-3,.88-5.43-1.39-6.76-3.83-.2-.37-.77-1.24-.22-1.49.2-.09,1.13-.22,1.39-.23,1.83-.12,3.7.43,4.9,1.84l.69.97V.86c0-.15.31-.34.47-.34.18,0,.47.23.47.4v6.03c.35-.14.67-.37,1.02-.51,2.04-.84,4.36-.46,6.1.86.29.22.55.54.82.75.06.05.08.12.19.09.25-1.77.06-3.36.99-4.98,1.72-2.99,5.36-2.96,7.04.04,1.1,1.96.55,3.9,1.29,5.96.65,1.79,2.11,2.68,2.83,4.36,1.42,3.3.49,7.72-2.28,10.03,3.87.72,3.7,6.04-.22,6.47H12.79c-1.91-.25-3.56-1.61-4.13-3.44-.96.28-1.89.63-2.66,1.28-.35.29-.56.69-1.02.86-1.29.48-2.5-.73-2.03-2.03.14-.39.62-.82.92-1.11-.95-.22-2.72,0-3.41-.75-.55-.6-.54-1.53,0-2.13.76-.83,1.82-.32,2.78-.34-.96-1.92-2.37-3.8-2.92-5.89-.14-.55-.29-1.2-.33-1.76v-1.31ZM9.81,4.7c-.54-2.73-3.08-4.15-5.75-3.69,1.06,2.13,3.1,4.38,5.75,3.69ZM18.56,21.2l9.21,2.06c2.9-1.7,3.95-5.9,2.85-8.97-.66-1.86-2.25-2.81-2.97-4.72-.84-2.22-.17-4.74-1.72-6.59-1.38-1.64-3.56-1.41-4.74.32-.96,1.4-.77,2.6-.96,4.17-.04.34-.38,1.59-.36,1.74.03.19.34.65.44.88.36.85.65,1.74.74,2.67.39-.16.73-.39,1.14-.52,2.13-.66,4.39.03,5.7,1.84.31.42,1.49,2.51.32,2.44-.42-.03-.5-.78-.64-1.11-1.1-2.5-4.35-3.32-6.42-1.46.01,1.63-.45,3.17-1.13,4.63.96,2.26,3.6,3.2,5.78,2.02.88-.48,1.49-1.29,1.87-2.19.15-.36.11-.99.67-.95.7.05.28,1.13.13,1.5-1.54,3.85-6.92,4.17-9,.63l-.91,1.62ZM8.43,25.7c.03-.38-.03-.78,0-1.15.02-.22.27-1.09.22-1.16-.97-.51-1.89-1.13-2.56-2.01-.31-.41-.67-1.37-1.32-.93-.6.4-.09,1.06.21,1.48.35.49,1.49,1.38.3,1.64l-3.63-.43c-.76.04-.91,1.04-.16,1.22,1.09.27,2.54.18,3.66.41.34.07.53.41.35.72-.11.19-.73.56-.94.75-.38.33-1.15,1.01-.56,1.5s1.11-.38,1.53-.71c.79-.64,1.9-1.14,2.9-1.32Z"/>
  </g>
</svg>