<?xml version="1.0" encoding="UTF-8"?>
<svg id="Capa_2" data-name="Capa 2" xmlns="http://www.w3.org/2000/svg" viewBox="0 0 32 42.25">
  <defs>
    <style>
      .cls-1 {
        fill: #9fc42c;
      }
    </style>
  </defs>
  <g id="Capa_1-2" data-name="Capa 1">
    <g>
      <path class="cls-1" d="M16.16,0c.55.24.51.79.5,1.32.76-.71,1.62-1.11,2.64-1.32h2.06c.6.36.41,1.06.28,1.64-.29,1.29-1.18,2.42-2.37,2.98-.1.02-.06.11-.01.17.08.1.57.35.74.5.24.2.42.47.68.65.17.04.74-.32.97-.4,1.49-.52,3.35-.5,4.75.29.45.25.91.59.46,1.12s-1.32-.21-1.94-.38c-.85-.22-1.62-.22-2.47,0-1.3.33-.86.43-.54,1.28.8,2.15.55,4.4-.78,6.27h5.73c1.13-1.11,1.58-2.73,1.22-4.28-.13-.57-.77-1.38-.2-1.79.82-.6,1.25.88,1.38,1.43.39,1.62.11,3.25-.8,4.64h3.09c.42,0,.47.72.44,1.02-.16,1.98-2.1,4.09-4.16,4.09h-3.51v1.32h1.69c.29,0,1.14.46,1.4.66,1.62,1.28,1.46,4.31,2.08,6.16-.13.82-.96.95-1.25.11-.6-1.72-.32-5.48-2.64-5.7h-11.05c-.47-.05-.77-.42-.56-.88.03-.07.28-.35.31-.35h8.79v-1.32h-14.19v1.32h3.18c.38,0,.63,1-.04,1.2l-5.81.04c-.63.12-1.12.48-1.44,1.04l-2.88,13.13c-.22,1.42.48,2.37,1.91,2.5h24.26c1.49-.11,2.21-1.01,2-2.5l-1.27-5.89c.02-.46.38-.68.82-.59.33.07.36.35.45.63.42,1.32,1.12,4.49,1.25,5.84.2,2.13-1.13,3.56-3.21,3.74-.08.07.06,1.78,0,2.1-.04.21-.23.33-.41.42l-6.65.04c-.13.07-.53-.34-.53-.38v-2.19h-9.08v2.19c0,.08-.46.43-.62.37l-6.57-.04c-.17-.09-.37-.21-.41-.42-.06-.32.07-2.03,0-2.1-1.96-.11-3.6-1.79-3.19-3.81l2.84-13.16c.18-.87,1.6-2.16,2.46-2.16h1.69v-1.32h-3.51C2.12,19.22.14,17.1,0,15.13c-.02-.3.02-1.02.44-1.02h3.09c-2.82-4.37,1.06-10,6.19-8.79.56.13,1.04.45,1.59.61,1.06-1.13,2.46-1.87,4.02-2,.21-.14-.02-2.97.08-3.47.05-.24.26-.3.41-.46h.33ZM20.45,1.24c-1.8-.19-3.41.85-3.79,2.64,1.77.18,3.45-.84,3.79-2.64ZM15.42,5.2c-3.77.29-5.78,4.91-3.66,8,.23.34.64.91,1.06.92h6.52c3.36-2.64,1.56-8.52-2.68-8.92v3.18c0,.71-1.24.63-1.24.25v-3.42ZM10.88,14.11c-1.14-1.58-1.51-3.57-1.05-5.46.14-.59.45-1.09.63-1.66-1.38-.92-3.31-.72-4.67.17-2.36,1.55-2.68,5-.64,6.95h5.73ZM30.69,15.35H1.31c.28,1.48,1.52,2.51,3.01,2.64h23.19c1.55-.06,2.89-1.1,3.17-2.64ZM10.22,39.68h-5.12v1.32h5.12v-1.32ZM26.89,39.68h-5.12v1.32h5.12v-1.32Z"/>
      <path class="cls-1" d="M15.16,23.13c5.77-.59,9.84,5.48,6.9,10.53s-10.21,4.51-12.48-.71c-1.86-4.26.92-9.35,5.58-9.82ZM15.24,24.36c-4.39.5-6.56,5.89-3.78,9.34,2.63,3.26,7.79,2.78,9.68-.96,2.13-4.2-1.28-8.91-5.91-8.38Z"/>
      <path class="cls-1" d="M18.69,26.76c.5-.03.72.47.59.91-.1.32-1.36,1.21-1.51,1.55-.09.21.09.41.12.62.27,2.17-2.66,2.97-3.56,1.16-.71-1.44.38-2.93,1.95-2.78.2.02.48.19.62.13.42-.18,1.24-1.56,1.79-1.59ZM16.47,30.59c.59-.59-.26-1.56-.93-.97s.31,1.58.93.97Z"/>
    </g>
  </g>
</svg>