<?xml version="1.0" encoding="UTF-8"?>
<svg id="Capa_2" data-name="Capa 2" xmlns="http://www.w3.org/2000/svg" viewBox="0 0 32 35.59">
  <defs>
    <style>
      .cls-1 {
        fill: #9fc42c;
      }
    </style>
  </defs>
  <g id="Capa_1-2" data-name="Capa 1">
    <g>
      <path class="cls-1" d="M12.73,0c1.95.61,3.16,2.84,4.03,4.57.12.23.53,1.35.68,1.41.65,0,1.35-.19,2-.2,1.05-.02,2.25.16,3.25.44,1.15.32,2.39,1.16,3.56.39.47-.31.78-1.22,1.51-.72.63.42-.03,1.49-.32,1.98-.4.69-.96,1.16-1.35,1.81,6.11,4.35,7.8,12.72,3.54,19.02-7.24,10.69-25.62,8.65-29.13-4.04-1.55-5.59.57-11.17,4.99-14.74-.64-.67-1.2-1.46-1.59-2.31-.21-.47-.79-1.56-.01-1.8s.82.31,1.22.66c1.19,1.03,2.64.02,3.86-.31,1.06-.28,2.33-.43,3.41-.31-.42-1.14-1.54-2.2-1.67-3.45-.11-1.1.17-2.07,1.32-2.4h.7ZM25.33,8.28c-1.1.16-1.99-.45-2.99-.73-1.73-.49-2.78-.3-4.49-.18s-1.44-.33-2.04-1.58c-.56-1.16-1.82-3.62-2.91-4.26-.74-.43-.86.05-.78.71.09.78,1.6,2.97,2.05,3.87.24.48.47.99.67,1.49s.87,1.65.13,1.96c-1.14.48-1.31-1.68-1.84-2.27-.94-.18-1.96-.13-2.92.02-1.31.2-2.46.97-3.78,1.03-.15,0-.32-.12-.45-.03,1.48,2.22,4.18,2.75,6.65,1.98.55.08.81.49.61,1.03-.17.45-1.17,1.44-1.51,1.97-.14.22-.9,1.61-.81,1.73.59-.43,1.32-.54,1.97-.85.53-.25,1.72-.98,2.03-1.45.24-.38.13-1,.77-1.04.74-.05.66.54.85.96.19.39,1.37.96,1.8,1.06.77.18,1.63.07,2.39.42-.2-.59-.48-1.18-.85-1.69s-1.69-1.63-1.66-2.17c.01-.35.31-.65.67-.67.47-.02,1.36.32,1.95.36,1.64.11,3.41-.38,4.49-1.67ZM22.16,11.34c-.44.04-.92-.03-1.36,0,.77.99,1.32,2.15,1.51,3.4.08.51.27,1.27-.26,1.57-.63.36-.98-.37-1.46-.68-.82-.53-1.56-.37-2.45-.55s-1.66-.69-2.39-1.16c-.53.44-1.05.86-1.66,1.2-.98.55-2.1.75-2.97,1.48-.44.37-1.13,1.49-1.78.85-.39-.39-.12-1.56,0-2.08.27-1.22.85-2.33,1.58-3.33-1.55.05-3.05-.33-4.35-1.16C.96,15.09-.35,22.76,3.93,28.46c5.77,7.68,18.37,7.68,24.14,0,4.47-5.95,2.8-13.84-3.16-17.98-.86.37-1.8.78-2.75.87Z"/>
      <path class="cls-1" d="M3.52,20.34c1.16-.26.91,1.2,1,1.89.64,4.66,4.56,8.18,9.09,9,.84.15,1.68.11,2.48.23s.79,1.29-.13,1.39c-.31.03-1.05-.04-1.39-.07-5.87-.58-11.34-5.23-11.52-11.38-.01-.37,0-.96.47-1.07Z"/>
      <path class="cls-1" d="M18.39,32.34c-.64-.66.36-1.65.99-.95s-.41,1.55-.99.95Z"/>
    </g>
  </g>
</svg>