<?xml version="1.0" encoding="UTF-8"?>
<svg id="Capa_2" data-name="Capa 2" xmlns="http://www.w3.org/2000/svg" viewBox="0 0 32 31.97">
  <defs>
    <style>
      .cls-1 {
        fill: #9fc42c;
      }
    </style>
  </defs>
  <g id="Capa_1-2" data-name="Capa 1">
    <path class="cls-1" d="M19.65,2.88l-1.52,1.95c.14.3.35.58.46.9.1.28.16,1.04.26,1.17.07.1.69.34.93.57,1.05,1.04.96,3.01.22,4.21l.55.39c.21.04,1.6-.86,1.82-1.08l1.19-4.52,2.55-1.3c.63-.16,1.01.61.52,1.02-.32.27-2.03.91-2.14,1.09l-1.15,4.48-1.78,1.15.88.74,3.36-1.06c.18.03.29.12.39.26,1.05,1.45,1.78,3.57,2.82,5.07.81.51,1.71.92,2.5,1.46.15.1.35.19.42.36.21.48-.16.94-.68.83l-3.09-1.84-2.68-4.85-2.28.71,1.23,2.02.7,1.73,2.8,1.98.07,6.29,2.16,2.2c.32.46-.09,1.03-.62.91-.43-.1-2.16-2.18-2.64-2.57l-.05-6.16-.07-.14-1.28-.82c.3,1.46.26,2.98-.02,4.44-.72,3.72-4.34,6.67-7.96,7.39-3.86.77-8.31-1.78-10.19-5.12-1.09-1.94-1.17-4.56-.86-6.71-.23.15-1.29.78-1.32.96l-.05,6.16-2.45,2.48c-.54.36-1.16-.21-.84-.77l2.2-2.3.06-6.23,2.8-1.98c.45-1.33,1.11-2.57,1.93-3.71l-2.28-.75-2.68,4.85-3.09,1.84c-.61.15-1-.6-.52-1.02.69-.59,2-1.06,2.76-1.63,1.04-1.5,1.77-3.63,2.82-5.07.1-.14.21-.23.39-.26l3.48,1.08.76-.76-1.78-1.15-1.15-4.48c-.13-.2-1.87-.82-2.18-1.12-.44-.42-.04-1.15.56-.99l2.55,1.3,1.19,4.52,1.77,1.09.6-.4c-.84-1.41-.84-3.61.67-4.54.13-.08.36-.11.44-.2.11-.13.17-.85.25-1.11.11-.35.35-.66.5-1l-1.55-1.96-4.57-.05-2.45-1.84c-.42-.5.1-1.18.7-.91l2.27,1.66,4.53.04,2,2.36c.5.03.93-.15,1.47-.11.34.02.77.26,1.04.04l1.87-2.27,4.64-.07c.72-.37,1.49-1.27,2.17-1.61.61-.31,1.12.29.77.85l-2.53,1.9-4.56.05ZM17.71,6.86c-.16-1.09-.64-1.76-1.82-1.72-1.07.04-1.46.75-1.6,1.72h3.43ZM13.48,8.02c-1.12.44-1.07,2-.58,2.91s2.12,2.24,3.13,2.22,2.68-1.41,3.12-2.31.43-2.71-.83-2.84c-1.52-.15-3.3.1-4.84.02ZM12.75,12.59c-.77.46-1.48,1.02-2.11,1.66,3.01,2.08,7.7,2.08,10.71,0-.63-.64-1.34-1.2-2.11-1.66-.79.79-2.12,1.72-3.28,1.7s-2.44-.93-3.21-1.7ZM9.9,15.15l-1.02,1.42c-.04.08.04.1.08.14.46.49,1.98,1.19,2.64,1.43,3.66,1.31,8.44.94,11.52-1.54l-1.03-1.46c-3.48,2.41-8.71,2.39-12.19,0ZM23.71,17.72l-1.83,1.06c-3.67,1.69-8.09,1.69-11.76,0l-1.83-1.06-.56,1.95c4.54,2.65,10.01,2.88,14.84.87.27-.11,1.52-.65,1.65-.78.07-.08.07-.09.06-.19-.05-.58-.46-1.26-.56-1.84ZM24.5,20.93c-1.73.79-3.52,1.5-5.41,1.83-4.01.71-7.97-.06-11.58-1.83-.06.07-.11,1.78-.07,1.96.02.1.04.11.11.17.3.23,1.15.59,1.53.75,4.8,2.05,10.88,1.78,15.42-.78.21-.23,0-1.71,0-2.11ZM24.28,24.43c-5.06,2.51-11.48,2.54-16.53,0-.11-.04.25.98.29,1.07.18.44.35.87.77,1.09,1.88.97,5.34,1.51,7.44,1.49,1.88-.02,5.33-.61,6.99-1.51.57-.31.89-1.52,1.04-2.13ZM21.92,28.28c-3.85,1.17-8,1.16-11.85,0,1.37,1.32,3.75,2.48,5.67,2.57,2.05.1,4.73-1.17,6.18-2.57Z"/>
  </g>
</svg>