<?xml version="1.0" encoding="UTF-8"?>
<svg id="Capa_2" data-name="Capa 2" xmlns="http://www.w3.org/2000/svg" viewBox="0 0 32 29.48">
  <defs>
    <style>
      .cls-1 {
        fill: #9fc42c;
      }
    </style>
  </defs>
  <g id="Capa_1-2" data-name="Capa 1">
    <g>
      <path class="cls-1" d="M0,2.63c.14-.23.25-.37.53-.44L7.6,0c2.47.69,4.91,1.49,7.35,2.28.19.08.29.3.31.5-.04,2.32.08,4.66-.06,6.97h6.84c.13,0,.47.34.47.47v2.53h5.28s.37.25.44.31c.93.78,2.69,2.53,3.47,3.47.13.16.3.34.31.56l-.02,8.42c-.16.8-1.64.38-2.24.48.2,4.64-6.45,4.63-6.25,0h-10.75c.2,4.63-6.45,4.63-6.25,0h-3.91c-.37-.04-.58-.28-.6-.65v-10.87c-.77-1.16-1.46-2.34-1.77-3.73l-.23-1.3V2.63ZM13.99,3.26l-6.4-1.95L1.26,3.26c.08,1.93-.13,3.98,0,5.9.2,3.18,2.41,6.07,5.43,7.07.83.28,1.02.29,1.86.02,3.07-1,5.23-3.89,5.47-7.09V3.26ZM21.25,11h-6.31c-.77,3.08-3.3,5.69-6.36,6.54-.87.24-1.14.22-2-.03-.76-.22-1.48-.57-2.16-.97l-1.17-.8v9h3.75c1.07-1.99,4.18-1.99,5.25,0h9v-2.59c0-.21.37-.53.6-.54s.65.24.65.47v2.66h1.5c1.07-1.99,4.18-1.99,5.25,0h1.5v-1.75h-2.03c-.13,0-.47-.34-.47-.47v-2.03h-2.41c-.63,0-1.59-.97-1.59-1.59v-4.91h-1.75v2.84c0,.2-.46.42-.65.41s-.6-.32-.6-.47v-5.78ZM30.75,19.25v-1.84l-3.41-3.41h-1.84v4.78c0,.08.38.47.47.47h4.78ZM30.75,20.5h-1.25v1.25h1.25v-1.25ZM9.36,24.52c-2.37.31-1.99,3.98.48,3.73s2.06-4.06-.48-3.73ZM24.83,25.95c-.2.2-.02.92.08,1.17.57,1.4,2.65,1.51,3.35.17.96-1.84-1.18-3.62-2.78-2.41-.4.3-.19.23-.23.58-.05.39-.28.35-.42.49Z"/>
      <path class="cls-1" d="M21.73,18.83c.84-.19,1.1,1.13.23,1.24-.79.09-.95-1.08-.23-1.24Z"/>
      <path class="cls-1" d="M7.49,2.64c.24-.03.36.02.58.08,1.44.36,2.84.97,4.28,1.34.27.13.38.3.41.59.12,1.36.11,4.44-.22,5.72-.51,1.98-2.01,3.7-3.88,4.49-.88.37-1.07.4-1.96.04-2.34-.93-4.03-3.29-4.19-5.81-.08-1.2-.11-3.27,0-4.44.03-.29.14-.47.41-.59l4.58-1.42ZM7.48,3.96l-3.71,1.17c-.03,2.86-.51,5.67,1.91,7.72.38.32,1.49,1.05,1.97,1.03s1.54-.72,1.91-1.03c2.42-2.05,1.94-4.87,1.91-7.72l-3.59-1.16c-.13-.05-.26-.03-.39-.01Z"/>
      <path class="cls-1" d="M9.6,25.77c.74-.04.89,1.12.17,1.23-.99.16-1-1.19-.17-1.23Z"/>
      <path class="cls-1" d="M26.6,25.77c.74-.04.89,1.12.17,1.23-.99.16-1-1.19-.17-1.23Z"/>
      <path class="cls-1" d="M9.42,6.89c.61-.14,1.01.37.73.92l-2.79,2.77c-.23.09-.46.08-.67-.05-.14-.09-1.56-1.52-1.61-1.64-.31-.63.37-1.18.95-.77.19.13.93,1.02,1.05,1,.49-.32,1.91-2.14,2.33-2.23Z"/>
    </g>
  </g>
</svg>