<?xml version="1.0" encoding="UTF-8"?>
<svg id="Capa_2" data-name="Capa 2" xmlns="http://www.w3.org/2000/svg" viewBox="0 0 32 32.12">
  <defs>
    <style>
      .cls-1 {
        fill: #9fc42c;
      }
    </style>
  </defs>
  <g id="Capa_1-2" data-name="Capa 1">
    <g>
      <path class="cls-1" d="M.05,14.36c1.05-2.49,1.87-5.1,3.04-7.52.29-.36.88-.66,1.34-.68.56-.02,3.53,1.17,4.17,1.49.9.44,1.24,1.17,1.07,2.17-1.04,2.19-1.66,4.97-2.76,7.08-.38.73-.73.69-1.43.47-1.39-.44-3.43-1.24-4.76-1.85-.13-.06-.39-.18-.48-.27-.2-.2-.31-.62-.19-.9ZM8.93,9.74c.17-.72-.06-1.13-.69-1.44s-2.79-1.22-3.4-1.34-1.01.09-1.33.58L.72,14.66l5.44,2.12,2.76-7.04Z"/>
      <path class="cls-1" d="M15.89,8.4c-.06.06-.07.16-.09.24.47,1.09.9,2.24,1.42,3.31.13.26.3.67.48.89.6.71,2.58.74,3.43,1.16.74.37.55,1.44-.27,1.5-.42.03-2.76-.45-3.2-.62-.71-.27-1.37-1.62-1.9-2.19-.13-.1-.33-.1-.47-.03-.25.12-1.22,3.09-1.44,3.55-.1.03-.19,0-.28-.03-.92-.28-2.05-1.08-2.94-1.3-.55-.13-.78.37-.31.67l3.18,1.38c-.02.42-.32.75-.36,1.17-.05.5-.06,1.74.01,2.23s.6.4.7.06c.17-.57-.12-1.69.05-2.32l1.73-4.3c.59.59.91,1.46,1.73,1.79.5.2,2.86.7,3.39.71,1.37.03,2.12-1.61,1.17-2.6-.66-.69-2.46-.71-3.35-1.11-.15-.07-.24-.17-.36-.29l-1.72-3.81c-.09-.2-.46-.18-.59-.06Z"/>
      <path class="cls-1" d="M19.46,5.9c-2.09,2.66-6.42.52-5.39-2.95C14.55,1.35,15.64-.03,17.47,0c3.21.05,3.69,3.75,1.99,5.9ZM16.41,2.56c.32-.24.59-.66,1.01-.71.88-.11.94.66,1.5,1.14.13.11.59.45.72.5.13.05.1-.03.11-.11.16-1.18-.74-2.43-1.92-2.6-1.84-.27-2.74,1.13-3.1,2.71.65-.18,1.15-.54,1.69-.94ZM19.45,4.26c-.37-.29-.88-.53-1.21-.87-.16-.16-.54-.83-.68-.83-.87.69-1.74,1.56-2.91,1.66.43,2.86,4.19,2.76,4.8.04Z"/>
      <path class="cls-1" d="M3.89,18.03c-.35.35.3.86.56,1.1,3.05,2.85,7.13,4.57,11.14,2.51,1.5-.77,3.34-2.45,4.22-3.89.16-.27.57-.86.09-1-.42-.13-.96.96-1.23,1.3-4,5.02-8.76,4.78-13.43.79-.27-.23-.98-1.18-1.35-.81Z"/>
      <path class="cls-1" d="M10.94,23.12c-.35-.11-.49.05-.53.38-.25,2.21.18,4.91.02,7.17.38,1.93,3.02,1.94,3.42.01v-7.1c0-.43-.64-.47-.71-.07l-.02,7.02c-.29,1.19-1.84,1.13-1.99-.13-.25-2.15.17-4.76,0-6.96,0-.14-.06-.26-.2-.31Z"/>
      <path class="cls-1" d="M25.95,16.84l-3.25-.09c-.19-.15-.23-.35-.22-.57,0-.47.19-1.84.31-2.28.1-.33.35-.37.66-.34l2.94.79c.31.18.16.45.12.74l.11.11c1.72.27,4.66-.06,3.62,2.63-.9.21-.47-.57-.5-1-.04-.39-.35-.54-.69-.61-.29-.06-2.49-.35-2.6-.28-.17.41.07.8-.49.91ZM25.64,16.07l.14-1.14-2.25-.57c-.09.03-.1.09-.11.17-.08.48-.09,1.05-.14,1.54h2.37Z"/>
      <path class="cls-1" d="M7.68,3.72l-.43,1.29c-.62-.22-1.56-.85-2.02-.05-.65,1.11.29,1.57.63.41l.13-.06c.76.37,1.76.58,2.49.96.54.28-.3.71.15,1.07s.78-.49.83-.82c.13-.81-.93-.99-1.47-1.23l.42-1.18.89.17c.33-.21.33-.48,0-.69-.21-.13-1.79-.73-2-.74-.82-.03-.22.96.4.87Z"/>
      <path class="cls-1" d="M9.39,31.35c.11-.11.11-.43,0-.54-.49-.13-.94-.19-1.06-.78-.19-2.31.24-4.98,0-7.25-.04-.41-.31-.51-.65-.29l-.06,7.69c-.05.65,1.29,1.65,1.77,1.17Z"/>
      <path class="cls-1" d="M7.86,17.03c-.61.03-.2,1.07-.05,1.38.29.58.94,1.21,1.52,1.49.21.1.91.28,1.01.36.15.13-.03.53.22.72.61.47.84-1.01.3-1.31-.96-.52-1.81-.36-2.4-1.62-.15-.32-.17-1.05-.6-1.03Z"/>
      <path class="cls-1" d="M11.72,4.53c-.43-.04-2.46-.05-2.27.68.15.56.93.07,1.36.02.4-.04.85.02,1.25.1.31.06,1.25.43,1.43.37.33-.1.34-.45.07-.65s-1.48-.48-1.85-.52Z"/>
      <path class="cls-1" d="M13.41,6.93c.17-.18.11-.57-.18-.61-.59-.09-1.9.81-2.32,1.24-.21.22-.99,1.14-.32,1.26.42.07.5-.35.75-.61.39-.42.81-.73,1.32-.98.18-.09.64-.18.75-.29Z"/>
      <path class="cls-1" d="M27.1,21.76c-.08-.03-.17-.03-.26,0-.29.09-.97,2.01-1.24,2.36-.11.26,0,.45.25.55.19.05.32-.1.42-.23.21-.29.84-1.66.98-2.04.08-.22.16-.54-.16-.63Z"/>
      <path class="cls-1" d="M31.44,25.39c.09-.09.1-.32.09-.45-.02-.49-.19-1.66-.31-2.14-.16-.65-.77-.55-.77-.02,0,.29.27,2.1.37,2.37s.39.47.62.24Z"/>
      <path class="cls-1" d="M28.82,24.13c-.32-.09-.45.12-.52.39-.08.32-.26,1.64-.23,1.94.02.2.12.31.33.32.39.02.4-.55.45-.84.06-.32.23-1.25.22-1.5,0-.11-.16-.27-.26-.3Z"/>
      <path class="cls-1" d="M31.8,27.22c-.16-.17-.57-.13-.63.16-.07.37.18,1.96.76,1.33.17-.18,0-1.36-.13-1.5Z"/>
      <path class="cls-1" d="M25.09,26.14c-.09-.03-.24-.03-.33,0-.22.07-.68,1.15-.61,1.37.07.24.47.28.63.08.17-.22.75-1.31.32-1.45Z"/>
      <path class="cls-1" d="M27.74,20.22c.07.07.26.11.36.08.25-.07.76-1.17.65-1.41-.41-.84-1.34,1-1.01,1.33Z"/>
      <path class="cls-1" d="M30.47,19.03c-.78-.24-.42,1.27-.24,1.6.95.43.56-1.51.24-1.6Z"/>
      <path class="cls-1" d="M28.42,28.08c-.53-.53-1.05.74-.31.74.38,0,.52-.52.31-.74Z"/>
      <path class="cls-1" d="M3,13.61l1.8-4.74c-.14-.31-.5-.38-.69-.07l-1.72,4.38c-.12.46.22.66.61.43Z"/>
      <path class="cls-1" d="M5.98,9.19c-.22-.06-.38.02-.46.22-.4,1.37-1.28,2.83-1.64,4.18-.2.73.33.93.63.42.7-1.21,1.03-3.06,1.71-4.33.11-.18-.06-.44-.23-.49Z"/>
      <path class="cls-1" d="M5.33,14.76c.17.18.52.04.61-.18l1.71-4.4c.03-.3-.25-.54-.55-.4-.31.15-1.52,3.92-1.85,4.47-.03.14-.02.4.07.5Z"/>
    </g>
  </g>
</svg>