<?xml version="1.0" encoding="UTF-8"?>
<svg id="Capa_2" data-name="Capa 2" xmlns="http://www.w3.org/2000/svg" viewBox="0 0 32 32.07">
  <defs>
    <style>
      .cls-1 {
        fill: #9fc42c;
      }
    </style>
  </defs>
  <g id="Capa_1-2" data-name="Capa 1">
    <g>
      <path class="cls-1" d="M19.27,0c6.06.65,8.51,8.18,3.78,12.19-3.54,3-9.07,1.55-10.79-2.71C10.55,5.24,13.45.39,18.02,0h1.25ZM18.13,1.27c-3.93.35-6.32,4.64-4.52,8.17,2.06,4.06,7.96,4.1,10.05.04,2.03-3.95-1.11-8.6-5.52-8.21Z"/>
      <path class="cls-1" d="M29.13,13.33c.63-.09,1.21.02,1.75.35,1.24.74,1.46,2.53.64,3.67-1.7,2.38-4.06,4.57-5.81,6.94-1.05.93-2.31,1.45-3.72,1.53-2.8.17-5.94-.25-8.69,0-.8.07-1.15.64-1.71,1.11.12.67.11,1.25-.32,1.8-.49.64-2.48,2.64-3.12,3.13-.38.3-.62.3-1,0L.05,24.63c-.11-.4,0-.56.22-.85.56-.71,2.1-2.21,2.81-2.82.37-.31.67-.5,1.16-.59.18-.03.43.04.59-.04.07-.03.71-1.05.88-1.25,1.86-2.18,4.78-3.01,7.57-2.58.59.09,1.26.43,1.77.48,2.13.23,4.69-.16,6.88,0,.56.04,1.1.18,1.55.51.11.08.41.44.5.42l3.91-4.03c.34-.28.79-.52,1.24-.58ZM29.25,14.58c-.24.04-.46.21-.64.36l-4.1,4.22c.08,1.71-.96,2.8-2.65,2.91-1.29.08-3.61.12-4.88,0-.82-.08-1.03-.95-.25-1.25,1.67-.11,3.48.13,5.12,0,.97-.08,1.68-.81,1.28-1.79-.23-.57-.77-.74-1.34-.78-2.22-.17-4.83.24-7,0-.36-.04-.88-.31-1.28-.41-2.92-.68-6.21.45-7.61,3.19l4.89,4.9c.61-.66,1.34-1.22,2.26-1.37,2.91-.15,5.98.18,8.87,0,1.26-.08,2.27-.53,3.12-1.44,1.94-2.07,3.66-4.57,5.56-6.69.54-.99-.26-2.05-1.36-1.86ZM4.31,21.64c-.42.09-2.19,2.26-2.7,2.61l-.09.15,6.14,6.1c.15-.17.34-.28.51-.43.46-.41,1.78-1.65,2.09-2.1.15-.22.16-.4.1-.66l-5.47-5.53c-.16-.13-.38-.19-.58-.14Z"/>
      <path class="cls-1" d="M19.15,3.87c.4.14,1.13.56,1.11,1.04-.02.41-.38.65-.77.6-.25-.04-.48-.39-.78-.47-.58-.16-1.06.51-.68.99.23.3.83.22,1.2.37,1.58.62,1.54,2.99-.07,3.49,0,.61.11,1.51-.78,1.37-.63-.1-.45-.92-.48-1.36-.6-.1-1.86-1.14-1.02-1.69.66-.44.91.36,1.36.51.88.29,1.23-.75.6-1.1-.25-.14-.65-.1-.98-.21-1.63-.57-1.59-2.97.03-3.52.05-.44-.15-1.13.4-1.32.89-.3.91.71.87,1.32Z"/>
      <path class="cls-1" d="M14.13,20.7c1.03-.21.99,1.36.06,1.22-.66-.1-.75-1.09-.06-1.22Z"/>
    </g>
  </g>
</svg>