<?xml version="1.0" encoding="UTF-8"?>
<svg id="Capa_2" xmlns="http://www.w3.org/2000/svg" version="1.1" viewBox="0 0 34 34">
  <!-- Generator: Adobe Illustrator 29.8.2, SVG Export Plug-In . SVG Version: 2.1.1 Build 3)  -->
  <defs>
    <style>
      .st0 {
        fill: #9fc42c;
      }
    </style>
  </defs>
  <g id="Capa_1-2">
    <path class="st0" d="M16,0c13.4-.8,22.5,13.8,15.7,25.5-6.8,11.7-23.3,11.2-29.6-.4C-3.9,14.2,3.7.7,16,0ZM21.4,19.7c2.3.9,4.4,2.7,5.7,4.8.4.6.6,1.3,1,1.9,4.5-5.2,4.7-12.9.5-18.4C23.7,1.8,14.5.6,8.1,5.4,1.8,10.3.5,20.2,6,26.5c.3-.6.6-1.3,1-1.9,1.3-2.2,3.3-3.9,5.7-4.8-5.3-4.5-1.5-13.1,5.4-12.1,5.9.9,7.9,8.3,3.4,12.1h0ZM16.6,10c-6,.6-4.9,9.8,1.1,8.8,5.6-.9,4.5-9.4-1.1-8.8ZM15.9,21.3c-3.4.3-6.5,2.8-7.6,6-.1.3-.4,1-.2,1.2s1.5,1,1.8,1.2c4.5,2.5,9.9,2.5,14.3,0,.3-.1,1.7-1.1,1.8-1.2.2-.4-1-2.6-1.2-3-2-3-5.3-4.4-8.8-4.1h0Z"/>
  </g>
</svg>